<svg xmlns="http://www.w3.org/2000/svg" width="375" viewBox="0 0 375 375" height="375" version="1.0"><defs><clipPath id="a"><path d="M 116 94 L 233.503906 94 L 233.503906 166 L 116 166 Z M 116 94"/></clipPath></defs><path fill="#F469A9" d="M 200.109375 110.820312 C 201.707031 113.699219 204.238281 114.730469 206 113.433594 C 207.777344 112.15625 207.574219 109.433594 205.324219 107.027344 C 203.082031 104.628906 200.378906 103.367188 199.273438 104.195312 C 198.148438 104.992188 198.515625 107.949219 200.109375 110.820312"/><path fill="#A83573" d="M 132.101562 166.054688 L 178.566406 205.757812"/><path fill="#A83573" d="M 178.046875 206.367188 L 131.582031 166.664062 L 132.625 165.445312 L 179.085938 205.152344 L 178.046875 206.367188"/><path fill="#A83573" d="M 165.425781 155.167969 L 184.652344 196.792969"/><path fill="#A83573" d="M 183.925781 197.128906 L 164.699219 155.503906 L 166.15625 154.832031 L 185.378906 196.457031 L 183.925781 197.128906"/><path fill="#A83573" d="M 192.34375 148.765625 L 195.867188 193.59375"/><path fill="#A83573" d="M 195.070312 193.65625 L 191.546875 148.828125 L 193.140625 148.703125 L 196.667969 193.53125 L 195.070312 193.65625"/><path fill="#A83573" d="M 215.09375 141.398438 L 203.519531 196.71875"/><path fill="#A83573" d="M 204.304688 196.882812 L 202.734375 196.554688 L 214.308594 141.238281 L 215.878906 141.5625 L 204.304688 196.882812"/><path fill="#A83573" d="M 121.851562 161.570312 C 121.851562 161.570312 133.386719 177.582031 139.152344 161.570312 C 139.152344 161.570312 158.433594 170.691406 165.105469 157.089844 C 165.105469 157.089844 181.128906 165.09375 194.585938 149.085938 C 194.585938 149.085938 210.605469 157.410156 216.375 140.4375 C 216.375 140.4375 228.230469 149.726562 230.796875 135.957031 C 233.359375 122.1875 231.753906 134.675781 231.753906 134.675781 C 231.753906 134.675781 148.125 124.429688 121.53125 160.292969"/><g clip-path="url(#a)"><path fill="#CC4286" d="M 119.394531 161.257812 C 119.394531 161.257812 123.71875 168.460938 131.410156 163.417969 C 131.410156 163.417969 137.660156 161.019531 136.21875 154.054688 C 136.21875 154.054688 161.449219 166.058594 171.78125 143.488281 C 171.78125 143.488281 197.253906 155.976562 209.027344 135.082031 C 209.027344 135.082031 231.617188 149.011719 233.0625 131.960938 C 233.0625 131.960938 228.734375 88.019531 169.378906 94.742188 C 169.378906 94.742188 103.160156 102.347656 119.394531 161.257812"/></g><path fill="#F25299" d="M 133.386719 135.636719 C 133.386719 135.636719 133.386719 152.285156 121.207031 149.40625 C 121.207031 149.40625 109.992188 143.320312 124.414062 120.90625 C 124.414062 120.90625 135.308594 103.9375 156.457031 99.132812 C 156.457031 99.132812 187.535156 88.886719 208.683594 107.460938 C 208.683594 107.460938 218.617188 118.027344 201.957031 118.667969 C 201.957031 118.667969 205.160156 129.550781 188.179688 131.152344 C 188.179688 131.152344 170.234375 132.753906 166.386719 125.390625 C 166.386719 125.390625 163.824219 141.398438 146.84375 141.398438 C 146.84375 141.398438 136.910156 141.398438 133.386719 135.636719"/><path fill="#F469A9" d="M 130.703125 134.230469 C 131.40625 139.839844 128.886719 143.828125 125.054688 143.804688 C 121.222656 143.828125 118.703125 139.839844 119.40625 134.230469 C 120.109375 128.628906 122.636719 124.152344 125.054688 124.183594 C 127.46875 124.152344 130 128.628906 130.703125 134.230469"/><path fill="#F469A9" d="M 154.265625 122.503906 C 155.3125 130.992188 151.574219 137.03125 145.882812 136.996094 C 140.191406 137.03125 136.453125 130.992188 137.496094 122.503906 C 138.539062 114.027344 142.296875 107.25 145.882812 107.296875 C 149.46875 107.25 153.222656 114.027344 154.265625 122.503906"/><path fill="#F469A9" d="M 166.867188 114.710938 C 169.882812 120.140625 174.660156 122.089844 177.984375 119.640625 C 181.339844 117.230469 180.957031 112.089844 176.714844 107.550781 C 172.476562 103.019531 167.375 100.644531 165.289062 102.203125 C 163.164062 103.707031 163.855469 109.289062 166.867188 114.710938"/><path fill="#CC4286" d="M 135.949219 150.683594 L 179.207031 202.878906"/><path fill="#CC4286" d="M 178.589844 203.386719 L 135.332031 151.195312 L 136.566406 150.175781 L 179.824219 202.367188 L 178.589844 203.386719"/><path fill="#CC4286" d="M 172.476562 139.480469 L 188.261719 192.714844"/><path fill="#CC4286" d="M 187.496094 192.941406 L 171.707031 139.707031 L 173.246094 139.25 L 189.03125 192.488281 L 187.496094 192.941406"/><path fill="#CC4286" d="M 209.644531 131.152344 L 201.28125 198.433594"/><path fill="#CC4286" d="M 202.078125 198.53125 L 200.484375 198.335938 L 208.851562 131.054688 L 210.441406 131.253906 L 202.078125 198.53125"/><path fill="#CC4286" d="M 231.753906 134.675781 L 204.253906 197.042969"/><path fill="#CC4286" d="M 204.984375 197.363281 L 203.519531 196.71875 L 231.023438 134.351562 L 232.488281 135 L 204.984375 197.363281"/><path fill="#522B24" d="M 179.515625 224.9375 C 178.875 224.9375 178.246094 224.832031 177.621094 224.621094 C 173.058594 223.070312 171.128906 216.335938 170.921875 215.574219 L 174.015625 214.742188 L 172.46875 215.15625 L 174.015625 214.742188 C 174.457031 216.359375 176.148438 220.742188 178.65625 221.589844 C 179.722656 221.949219 180.914062 221.613281 182.292969 220.554688 L 184.242188 223.097656 C 182.640625 224.320312 181.054688 224.9375 179.515625 224.9375"/><path fill="#522B24" d="M 210.203125 218.328125 L 209.179688 215.296875 C 210.816406 214.746094 211.855469 213.863281 212.355469 212.605469 C 213.398438 210 211.921875 206.210938 211.269531 204.96875 L 214.097656 203.464844 C 214.222656 203.703125 217.132812 209.257812 215.339844 213.777344 C 214.480469 215.9375 212.753906 217.46875 210.203125 218.328125"/><path fill="#C56D42" d="M 186.660156 222.644531 C 187.113281 225.667969 186.53125 228.074219 185.355469 228.011719 C 184.175781 227.941406 182.46875 226.308594 181.546875 224.371094 C 180.621094 222.433594 181.183594 219.949219 182.832031 218.925781 C 184.476562 217.910156 186.203125 219.621094 186.660156 222.644531"/><path fill="#F9AE61" d="M 185.40625 222.335938 C 185.796875 224.761719 185.402344 226.679688 184.523438 226.613281 C 183.644531 226.535156 182.347656 225.199219 181.625 223.632812 C 180.90625 222.066406 181.28125 220.089844 182.492188 219.296875 C 183.699219 218.511719 185.015625 219.910156 185.40625 222.335938"/><path fill="#FCD978" d="M 184.566406 221.464844 C 184.878906 222.597656 184.554688 223.675781 183.835938 223.875 C 183.121094 224.074219 182.285156 223.316406 181.96875 222.1875 C 181.65625 221.054688 181.980469 219.976562 182.699219 219.777344 C 183.414062 219.578125 184.25 220.335938 184.566406 221.464844"/><path fill="#C56D42" d="M 205.546875 217.398438 C 206.71875 220.226562 208.460938 221.984375 209.4375 221.328125 C 210.410156 220.65625 211.03125 218.378906 210.820312 216.242188 C 210.609375 214.105469 208.847656 212.269531 206.910156 212.242188 C 204.972656 212.21875 204.378906 214.578125 205.546875 217.398438"/><path fill="#F9AE61" d="M 206.464844 216.488281 C 207.382812 218.769531 208.710938 220.210938 209.425781 219.699219 C 210.140625 219.179688 210.5625 217.367188 210.371094 215.652344 C 210.179688 213.9375 208.835938 212.441406 207.390625 212.382812 C 205.949219 212.332031 205.546875 214.210938 206.464844 216.488281"/><path fill="#FCD978" d="M 206.734375 215.3125 C 207.050781 216.441406 207.882812 217.199219 208.601562 217 C 209.316406 216.800781 209.644531 215.722656 209.328125 214.589844 C 209.015625 213.460938 208.179688 212.703125 207.460938 212.902344 C 206.746094 213.101562 206.421875 214.179688 206.734375 215.3125"/><path fill="#522B25" d="M 174.953125 205.820312 L 171.0625 206.898438 L 170.828125 206.058594 L 174.71875 204.976562 L 174.953125 205.820312"/><path fill="#522B25" d="M 171.226562 206.402344 C 171.035156 205.71875 170.328125 205.320312 169.648438 205.511719 C 168.964844 205.699219 168.566406 206.40625 168.753906 207.085938 C 168.945312 207.769531 169.652344 208.167969 170.335938 207.976562 C 171.015625 207.789062 171.417969 207.082031 171.226562 206.402344"/><path fill="#713A34" d="M 170.847656 206.503906 C 170.714844 206.03125 170.226562 205.757812 169.753906 205.886719 C 169.277344 206.019531 169.003906 206.507812 169.132812 206.980469 C 169.265625 207.453125 169.753906 207.730469 170.230469 207.601562 C 170.703125 207.46875 170.980469 206.980469 170.847656 206.503906"/><path fill="#713A34" d="M 174.191406 205.59375 C 174.261719 205.847656 173.652344 206.242188 172.824219 206.46875 C 172 206.699219 171.277344 206.675781 171.207031 206.421875 C 171.132812 206.164062 171.746094 205.773438 172.570312 205.542969 C 173.394531 205.316406 174.117188 205.335938 174.191406 205.59375"/><path fill="#C56E42" d="M 180.765625 203.753906 C 180.234375 201.84375 178.257812 200.726562 176.34375 201.257812 C 174.433594 201.785156 173.316406 203.765625 173.847656 205.671875 C 174.378906 207.582031 176.355469 208.699219 178.269531 208.167969 C 180.179688 207.636719 181.296875 205.660156 180.765625 203.753906"/><path fill="#F9AE61" d="M 176.230469 204.820312 C 176.339844 206.210938 176.019531 207.367188 175.519531 207.40625 C 175.019531 207.445312 174.527344 206.351562 174.417969 204.960938 C 174.308594 203.570312 174.628906 202.410156 175.128906 202.375 C 175.628906 202.335938 176.125 203.429688 176.230469 204.820312"/><path fill="#522B25" d="M 205.863281 197.238281 L 209.753906 196.160156 L 209.519531 195.316406 L 205.628906 196.398438 L 205.863281 197.238281"/><path fill="#522B25" d="M 209.355469 195.816406 C 209.167969 195.132812 209.566406 194.425781 210.246094 194.238281 C 210.929688 194.050781 211.636719 194.449219 211.828125 195.128906 C 212.015625 195.8125 211.617188 196.515625 210.933594 196.707031 C 210.253906 196.894531 209.546875 196.496094 209.355469 195.816406"/><path fill="#713A34" d="M 209.734375 195.710938 C 209.601562 195.238281 209.878906 194.75 210.351562 194.617188 C 210.828125 194.484375 211.316406 194.761719 211.449219 195.234375 C 211.582031 195.707031 211.304688 196.199219 210.828125 196.328125 C 210.355469 196.460938 209.867188 196.183594 209.734375 195.710938"/><path fill="#713A34" d="M 206.402344 196.652344 C 206.472656 196.90625 207.199219 196.929688 208.023438 196.699219 C 208.84375 196.46875 209.457031 196.078125 209.386719 195.824219 C 209.316406 195.566406 208.585938 195.546875 207.765625 195.773438 C 206.941406 196.003906 206.328125 196.394531 206.402344 196.652344"/><path fill="#C56E42" d="M 199.816406 198.464844 C 199.285156 196.554688 200.40625 194.578125 202.316406 194.046875 C 204.226562 193.515625 206.203125 194.632812 206.734375 196.542969 C 207.265625 198.453125 206.148438 200.429688 204.238281 200.960938 C 202.328125 201.492188 200.347656 200.375 199.816406 198.464844"/><path fill="#F9AE61" d="M 204.253906 197.042969 C 204.878906 198.289062 205.75 199.117188 206.199219 198.890625 C 206.648438 198.664062 206.503906 197.472656 205.878906 196.226562 C 205.253906 194.980469 204.382812 194.152344 203.933594 194.375 C 203.484375 194.601562 203.628906 195.792969 204.253906 197.042969"/><path fill="#522B25" d="M 188.679688 185.09375 C 187.71875 185.359375 186.71875 184.792969 186.453125 183.832031 C 186.183594 182.871094 186.75 181.875 187.710938 181.605469 C 188.671875 181.339844 189.671875 181.90625 189.9375 182.863281 C 190.207031 183.824219 189.640625 184.824219 188.679688 185.09375 M 181.347656 185.25 C 181.078125 184.289062 181.644531 183.289062 182.605469 183.023438 C 183.566406 182.757812 184.566406 183.320312 184.835938 184.28125 C 185.101562 185.242188 184.539062 186.242188 183.574219 186.507812 C 182.613281 186.777344 181.613281 186.210938 181.347656 185.25 M 187.332031 180.246094 C 186.277344 180.539062 185.492188 181.332031 185.152344 182.292969 C 184.367188 181.640625 183.285156 181.371094 182.230469 181.664062 C 180.515625 182.136719 179.507812 183.917969 179.984375 185.628906 C 180.460938 187.339844 182.242188 188.34375 183.953125 187.871094 C 184.027344 187.847656 184.097656 187.824219 184.167969 187.796875 L 185.863281 187.328125 L 186.753906 190.527344 L 188.117188 190.148438 L 187.226562 186.949219 L 188.839844 186.503906 C 188.910156 186.488281 188.984375 186.472656 189.058594 186.453125 C 190.769531 185.976562 191.777344 184.199219 191.300781 182.488281 C 190.828125 180.777344 189.046875 179.769531 187.332031 180.246094"/><path fill="#713A34" d="M 183.28125 187.699219 C 182.945312 187.792969 182.621094 187.800781 182.300781 187.730469 C 180.847656 187.40625 180.140625 185.5 180.109375 185.417969 C 180.050781 185.253906 180.136719 185.070312 180.304688 185.007812 C 180.472656 184.949219 180.652344 185.035156 180.714844 185.203125 C 180.726562 185.230469 181.335938 186.859375 182.441406 187.105469 C 183.027344 187.238281 183.683594 186.945312 184.390625 186.242188 C 184.515625 186.117188 184.71875 186.117188 184.839844 186.246094 C 184.964844 186.371094 184.964844 186.574219 184.839844 186.699219 C 184.3125 187.222656 183.789062 187.558594 183.28125 187.699219"/><path fill="#713A34" d="M 187.949219 190.085938 C 188.011719 190.3125 187.878906 190.550781 187.652344 190.613281 C 187.425781 190.675781 187.1875 190.542969 187.125 190.316406 L 186.296875 187.332031 C 186.234375 187.105469 186.367188 186.871094 186.59375 186.808594 C 186.820312 186.746094 187.054688 186.878906 187.121094 187.105469 L 187.949219 190.085938"/><path fill="#784639" d="M 206.207031 203.683594 C 207.609375 207.023438 205.605469 210.636719 201.734375 211.738281 C 196.414062 213.214844 191.089844 214.691406 185.769531 216.167969 C 181.882812 217.222656 178.300781 215.160156 177.777344 211.574219 C 177.183594 207.808594 176.589844 204.039062 175.996094 200.273438 C 175.472656 196.695312 177.390625 192.546875 180.410156 191.347656 C 184.644531 189.695312 189.035156 188.480469 193.511719 187.710938 C 196.71875 187.183594 200.503906 189.746094 201.902344 193.082031 C 203.339844 196.613281 204.773438 200.148438 206.207031 203.683594"/><path fill="#C56E42" d="M 201.242188 202.777344 C 201.597656 205.5 199.9375 208.425781 197.582031 209.292969 C 194.265625 210.453125 190.949219 211.613281 187.632812 212.773438 C 185.265625 213.597656 182.3125 211.875 181.089844 208.921875 C 179.835938 205.820312 178.609375 202.710938 177.421875 199.601562 C 176.269531 196.644531 177.613281 193.273438 180.617188 192.359375 C 184.742188 191.097656 189.140625 190.203125 193.464844 189.664062 C 196.625 189.300781 199.496094 191.429688 199.921875 194.140625 C 200.398438 197.015625 200.832031 199.894531 201.242188 202.777344"/><path fill="#F9AE61" d="M 196.527344 191.328125 C 196.246094 191.722656 194.289062 192.269531 192.21875 192.667969 C 189.3125 193.210938 186.4375 193.914062 183.609375 194.78125 C 181.59375 195.398438 179.59375 195.746094 179.140625 195.429688 C 178.695312 195.089844 178.273438 194.746094 177.886719 194.390625 C 177.496094 194.058594 179.175781 193.054688 181.785156 192.308594 C 185.359375 191.277344 189.140625 190.472656 192.824219 189.9375 C 195.507812 189.550781 197.453125 189.707031 197.238281 190.089844 C 197.03125 190.5 196.789062 190.914062 196.527344 191.328125"/><path fill="#FCD978" d="M 185.941406 192.445312 C 186.097656 192.996094 184.734375 193.859375 182.902344 194.367188 C 181.070312 194.875 179.457031 194.839844 179.304688 194.285156 C 179.152344 193.730469 180.511719 192.871094 182.34375 192.363281 C 184.175781 191.855469 185.789062 191.890625 185.941406 192.445312"/><path fill="#FCD978" d="M 189.359375 191.578125 C 189.476562 192.003906 188.984375 192.511719 188.261719 192.714844 C 187.539062 192.914062 186.855469 192.730469 186.734375 192.304688 C 186.617188 191.878906 187.109375 191.375 187.832031 191.171875 C 188.558594 190.96875 189.242188 191.152344 189.359375 191.578125"/><path fill="#EA424B" d="M 193.503906 200.59375 C 192.90625 198.449219 194.164062 196.222656 196.3125 195.628906 C 198.460938 195.03125 200.683594 196.289062 201.28125 198.433594 C 201.878906 200.578125 200.621094 202.804688 198.472656 203.398438 C 196.324219 203.996094 194.101562 202.738281 193.503906 200.59375"/><path fill="#784639" d="M 192.851562 200.773438 C 192.152344 198.269531 193.621094 195.671875 196.132812 194.972656 C 198.640625 194.277344 201.238281 195.746094 201.933594 198.253906 C 202.632812 200.761719 201.164062 203.355469 198.652344 204.050781 C 196.144531 204.75 193.546875 203.28125 192.851562 200.773438"/><path fill="#C56E42" d="M 193.503906 200.59375 C 192.90625 198.449219 194.164062 196.222656 196.3125 195.628906 C 198.460938 195.03125 200.683594 196.289062 201.28125 198.433594 C 201.878906 200.578125 200.621094 202.804688 198.472656 203.398438 C 196.324219 203.996094 194.101562 202.738281 193.503906 200.59375"/><path fill="#D9C83F" d="M 194.578125 200.34375 C 194.125 198.722656 195.078125 197.042969 196.699219 196.589844 C 198.324219 196.140625 200.003906 197.089844 200.453125 198.710938 C 200.90625 200.335938 199.953125 202.011719 198.332031 202.464844 C 196.710938 202.914062 195.027344 201.964844 194.578125 200.34375"/><path fill="#EADA6D" d="M 195.265625 199.320312 C 195.003906 198.367188 195.5625 197.382812 196.511719 197.117188 C 197.464844 196.855469 198.453125 197.410156 198.71875 198.363281 C 198.984375 199.316406 198.425781 200.300781 197.472656 200.566406 C 196.519531 200.832031 195.53125 200.273438 195.265625 199.320312"/><path fill="#381D1B" d="M 196.386719 199.746094 C 196.210938 199.109375 196.582031 198.453125 197.214844 198.277344 C 197.851562 198.101562 198.507812 198.472656 198.683594 199.109375 C 198.859375 199.742188 198.488281 200.398438 197.855469 200.574219 C 197.21875 200.75 196.5625 200.378906 196.386719 199.746094"/><path fill="#FFFDFC" d="M 195.285156 198.59375 C 195.167969 198.167969 195.417969 197.726562 195.84375 197.609375 C 196.269531 197.488281 196.714844 197.738281 196.832031 198.167969 C 196.949219 198.59375 196.699219 199.035156 196.273438 199.152344 C 195.847656 199.269531 195.402344 199.023438 195.285156 198.59375"/><path fill="#784639" d="M 178.535156 204.417969 C 178.023438 202.578125 179.101562 200.671875 180.945312 200.160156 C 182.785156 199.648438 184.691406 200.726562 185.203125 202.566406 C 185.714844 204.40625 184.640625 206.3125 182.796875 206.824219 C 180.957031 207.332031 179.046875 206.253906 178.535156 204.417969"/><path fill="#C56E42" d="M 179.015625 204.28125 C 178.578125 202.707031 179.5 201.074219 181.078125 200.640625 C 182.652344 200.199219 184.285156 201.125 184.726562 202.699219 C 185.160156 204.273438 184.242188 205.90625 182.664062 206.34375 C 181.085938 206.78125 179.453125 205.859375 179.015625 204.28125"/><path fill="#D9C83F" d="M 179.804688 204.097656 C 179.472656 202.910156 180.171875 201.675781 181.363281 201.34375 C 182.554688 201.015625 183.785156 201.710938 184.117188 202.902344 C 184.449219 204.09375 183.75 205.324219 182.558594 205.65625 C 181.367188 205.984375 180.132812 205.289062 179.804688 204.097656"/><path fill="#EADA6D" d="M 180.3125 203.347656 C 180.117188 202.648438 180.523438 201.925781 181.222656 201.734375 C 181.925781 201.539062 182.648438 201.945312 182.84375 202.644531 C 183.035156 203.34375 182.628906 204.070312 181.929688 204.261719 C 181.230469 204.457031 180.503906 204.050781 180.3125 203.347656"/><path fill="#381D1B" d="M 181.132812 203.660156 C 181.003906 203.195312 181.277344 202.714844 181.742188 202.585938 C 182.207031 202.453125 182.6875 202.726562 182.820312 203.191406 C 182.949219 203.660156 182.675781 204.140625 182.210938 204.269531 C 181.742188 204.398438 181.261719 204.125 181.132812 203.660156"/><path fill="#FFFDFC" d="M 180.324219 202.816406 C 180.238281 202.503906 180.421875 202.179688 180.734375 202.09375 C 181.046875 202.003906 181.371094 202.1875 181.460938 202.5 C 181.546875 202.816406 181.363281 203.140625 181.050781 203.226562 C 180.734375 203.3125 180.410156 203.128906 180.324219 202.816406"/><path fill="#C56E42" d="M 204.367188 206.992188 C 205.058594 207.660156 204.789062 208.753906 203.769531 209.433594 C 202.746094 210.109375 201.621094 210.246094 201.257812 209.738281 C 200.894531 209.230469 201.160156 208.136719 201.855469 207.300781 C 202.550781 206.457031 203.671875 206.320312 204.367188 206.992188"/><path fill="#784639" d="M 199.433594 208.527344 C 199.898438 209.253906 199.585938 210.339844 198.683594 210.855469 C 195.730469 212.546875 192.410156 213.476562 189.003906 213.5625 C 187.96875 213.59375 187.140625 212.8125 187.164062 211.933594 C 187.1875 211.050781 187.925781 210.398438 188.804688 210.378906 C 191.765625 210.316406 194.660156 209.519531 197.238281 208.058594 C 198.003906 207.628906 198.96875 207.800781 199.433594 208.527344"/><path fill="#784639" d="M 193.128906 204.390625 C 193.65625 205.890625 192.871094 207.535156 191.371094 208.066406 C 189.867188 208.597656 188.21875 207.808594 187.691406 206.308594 C 187.15625 204.808594 187.945312 203.160156 189.445312 202.632812 C 190.949219 202.101562 192.59375 202.886719 193.128906 204.390625"/><path fill="#FCD978" d="M 192.230469 205.304688 L 192.34375 205.300781 C 192.382812 205.300781 192.410156 205.265625 192.40625 205.222656 C 192.402344 205.175781 192.402344 205.125 192.394531 205.078125 C 192.386719 205.039062 192.351562 205.007812 192.3125 205.015625 C 192.3125 205.015625 192.261719 205.023438 192.203125 205.035156 C 192.140625 205.046875 192.078125 205 192.0625 204.929688 C 192.042969 204.863281 192.074219 204.789062 192.132812 204.769531 L 192.246094 204.734375 C 192.277344 204.722656 192.296875 204.679688 192.277344 204.636719 C 192.261719 204.59375 192.246094 204.550781 192.226562 204.507812 C 192.203125 204.46875 192.160156 204.449219 192.128906 204.46875 C 192.128906 204.46875 192.082031 204.492188 192.027344 204.519531 C 191.96875 204.546875 191.898438 204.523438 191.863281 204.460938 C 191.824219 204.402344 191.832031 204.324219 191.886719 204.289062 L 191.976562 204.222656 C 192.007812 204.199219 192.011719 204.152344 191.984375 204.117188 C 191.953125 204.082031 191.925781 204.042969 191.894531 204.011719 C 191.863281 203.980469 191.816406 203.976562 191.789062 204 C 191.789062 204 191.753906 204.039062 191.707031 204.082031 C 191.664062 204.125 191.589844 204.121094 191.535156 204.074219 C 191.480469 204.027344 191.464844 203.953125 191.503906 203.902344 L 191.574219 203.808594 C 191.597656 203.78125 191.585938 203.734375 191.550781 203.710938 C 191.511719 203.679688 191.472656 203.65625 191.429688 203.632812 C 191.394531 203.609375 191.347656 203.621094 191.328125 203.652344 C 191.328125 203.652344 191.304688 203.699219 191.273438 203.753906 C 191.246094 203.808594 191.171875 203.828125 191.105469 203.796875 C 191.039062 203.769531 191.003906 203.703125 191.027344 203.644531 L 191.066406 203.535156 C 191.078125 203.5 191.054688 203.460938 191.011719 203.445312 C 190.96875 203.429688 190.921875 203.417969 190.878906 203.40625 C 190.835938 203.398438 190.792969 203.421875 190.785156 203.457031 C 190.785156 203.457031 190.777344 203.507812 190.761719 203.570312 C 190.753906 203.632812 190.6875 203.671875 190.617188 203.660156 C 190.546875 203.652344 190.492188 203.601562 190.496094 203.535156 L 190.5 203.421875 C 190.5 203.386719 190.46875 203.355469 190.421875 203.351562 C 190.375 203.351562 190.328125 203.351562 190.28125 203.359375 C 190.238281 203.359375 190.207031 203.394531 190.210938 203.433594 C 190.210938 203.433594 190.214844 203.480469 190.222656 203.542969 C 190.226562 203.605469 190.175781 203.664062 190.105469 203.675781 C 190.039062 203.691406 189.96875 203.652344 189.953125 203.59375 L 189.925781 203.480469 C 189.917969 203.445312 189.875 203.425781 189.832031 203.4375 C 189.785156 203.449219 189.742188 203.464844 189.699219 203.484375 C 189.65625 203.5 189.636719 203.539062 189.652344 203.574219 C 189.652344 203.574219 189.671875 203.621094 189.695312 203.679688 C 189.722656 203.738281 189.6875 203.808594 189.625 203.839844 C 189.5625 203.871094 189.488281 203.859375 189.453125 203.804688 L 189.394531 203.707031 C 189.375 203.675781 189.328125 203.667969 189.292969 203.691406 C 189.25 203.714844 189.214844 203.746094 189.175781 203.777344 C 189.144531 203.804688 189.132812 203.847656 189.160156 203.875 C 189.160156 203.875 189.191406 203.914062 189.234375 203.964844 C 189.273438 204.011719 189.261719 204.089844 189.214844 204.136719 C 189.164062 204.1875 189.085938 204.195312 189.039062 204.15625 L 188.953125 204.078125 C 188.925781 204.054688 188.878906 204.058594 188.851562 204.09375 C 188.820312 204.128906 188.792969 204.171875 188.765625 204.207031 C 188.742188 204.242188 188.746094 204.289062 188.777344 204.308594 C 188.777344 204.308594 188.820312 204.335938 188.875 204.371094 C 188.929688 204.40625 188.941406 204.480469 188.90625 204.542969 C 188.871094 204.605469 188.804688 204.636719 188.746094 204.609375 L 188.644531 204.566406 C 188.609375 204.546875 188.5625 204.570312 188.546875 204.609375 C 188.527344 204.652344 188.515625 204.699219 188.5 204.742188 C 188.488281 204.785156 188.503906 204.828125 188.539062 204.835938 C 188.539062 204.835938 188.59375 204.847656 188.652344 204.867188 C 188.714844 204.882812 188.746094 204.953125 188.734375 205.023438 C 188.71875 205.089844 188.664062 205.140625 188.601562 205.132812 L 188.488281 205.121094 C 188.449219 205.113281 188.414062 205.148438 188.410156 205.191406 C 188.40625 205.238281 188.40625 205.285156 188.40625 205.332031 C 188.402344 205.375 188.433594 205.410156 188.472656 205.410156 C 188.472656 205.410156 188.523438 205.40625 188.585938 205.40625 C 188.648438 205.402344 188.703125 205.460938 188.710938 205.53125 C 188.71875 205.597656 188.675781 205.664062 188.613281 205.675781 L 188.503906 205.695312 C 188.464844 205.703125 188.441406 205.742188 188.449219 205.785156 C 188.457031 205.832031 188.476562 205.878906 188.488281 205.921875 C 188.5 205.964844 188.539062 205.988281 188.574219 205.976562 C 188.574219 205.976562 188.621094 205.960938 188.683594 205.941406 C 188.742188 205.917969 188.808594 205.957031 188.835938 206.023438 C 188.863281 206.089844 188.847656 206.160156 188.789062 206.191406 L 188.6875 206.242188 C 188.65625 206.257812 188.644531 206.304688 188.664062 206.34375 C 188.6875 206.386719 188.714844 206.425781 188.738281 206.460938 C 188.761719 206.5 188.808594 206.511719 188.839844 206.488281 C 188.839844 206.488281 188.878906 206.460938 188.929688 206.421875 C 188.984375 206.382812 189.058594 206.402344 189.101562 206.453125 C 189.148438 206.507812 189.152344 206.585938 189.109375 206.628906 L 189.027344 206.710938 C 189 206.738281 189.003906 206.785156 189.035156 206.8125 L 189.140625 206.90625 C 189.171875 206.933594 189.21875 206.929688 189.242188 206.898438 C 189.242188 206.898438 189.273438 206.859375 189.3125 206.808594 C 189.351562 206.757812 189.425781 206.753906 189.484375 206.789062 C 189.546875 206.828125 189.570312 206.898438 189.542969 206.957031 L 189.488281 207.058594 C 189.46875 207.089844 189.484375 207.136719 189.523438 207.152344 L 189.652344 207.210938 C 189.695312 207.230469 189.738281 207.210938 189.75 207.175781 C 189.75 207.175781 189.769531 207.128906 189.789062 207.066406 C 189.8125 207.007812 189.882812 206.980469 189.949219 206.996094 C 190.019531 207.015625 190.066406 207.078125 190.050781 207.140625 L 190.03125 207.253906 C 190.023438 207.289062 190.050781 207.328125 190.09375 207.332031 L 190.234375 207.351562 C 190.277344 207.355469 190.316406 207.324219 190.316406 207.289062 C 190.316406 207.289062 190.320312 207.238281 190.320312 207.171875 C 190.324219 207.109375 190.355469 207.058594 190.390625 207.058594 C 190.414062 207.0625 190.433594 207.0625 190.457031 207.058594 C 190.476562 207.058594 190.5 207.058594 190.519531 207.058594 C 190.554688 207.054688 190.585938 207.101562 190.59375 207.164062 L 190.605469 207.277344 C 190.609375 207.316406 190.648438 207.347656 190.691406 207.339844 L 190.832031 207.3125 C 190.875 207.304688 190.902344 207.265625 190.890625 207.226562 C 190.890625 207.226562 190.878906 207.179688 190.863281 207.117188 C 190.847656 207.058594 190.890625 206.992188 190.957031 206.972656 C 191.023438 206.949219 191.09375 206.972656 191.121094 207.03125 L 191.164062 207.136719 C 191.179688 207.167969 191.226562 207.1875 191.265625 207.164062 L 191.390625 207.101562 C 191.429688 207.082031 191.441406 207.035156 191.421875 207.003906 C 191.421875 207.003906 191.394531 206.960938 191.363281 206.90625 C 191.328125 206.851562 191.351562 206.777344 191.40625 206.738281 C 191.464844 206.695312 191.542969 206.699219 191.582031 206.746094 L 191.65625 206.835938 C 191.679688 206.863281 191.730469 206.863281 191.761719 206.832031 L 191.859375 206.734375 C 191.890625 206.703125 191.890625 206.65625 191.863281 206.632812 C 191.863281 206.632812 191.824219 206.597656 191.777344 206.554688 C 191.730469 206.515625 191.730469 206.4375 191.769531 206.382812 C 191.8125 206.324219 191.886719 206.304688 191.941406 206.339844 L 192.039062 206.402344 C 192.070312 206.421875 192.113281 206.40625 192.136719 206.371094 C 192.160156 206.328125 192.183594 206.289062 192.203125 206.246094 C 192.222656 206.207031 192.210938 206.160156 192.175781 206.144531 C 192.175781 206.144531 192.128906 206.125 192.070312 206.101562 C 192.011719 206.074219 191.992188 206 192.011719 205.933594 C 192.039062 205.867188 192.101562 205.828125 192.164062 205.84375 L 192.273438 205.875 C 192.3125 205.886719 192.347656 205.859375 192.359375 205.816406 C 192.371094 205.769531 192.382812 205.722656 192.386719 205.675781 C 192.394531 205.632812 192.367188 205.59375 192.328125 205.589844 C 192.328125 205.589844 192.277344 205.585938 192.214844 205.574219 C 192.152344 205.570312 192.109375 205.507812 192.113281 205.4375 C 192.117188 205.363281 192.164062 205.304688 192.230469 205.304688"/><path fill="#522B25" d="M 191.355469 205.015625 C 191.539062 205.535156 191.265625 206.109375 190.742188 206.292969 C 190.21875 206.480469 189.644531 206.207031 189.460938 205.683594 C 189.273438 205.160156 189.550781 204.585938 190.074219 204.402344 C 190.597656 204.21875 191.171875 204.492188 191.355469 205.015625"/><path fill="#C56E42" d="M 198.421875 208.03125 C 198.863281 208.707031 198.558594 209.722656 197.695312 210.210938 C 194.867188 211.808594 191.691406 212.695312 188.441406 212.800781 C 187.449219 212.832031 186.664062 212.109375 186.695312 211.285156 C 186.722656 210.464844 187.429688 209.847656 188.269531 209.824219 C 191.09375 209.75 193.859375 208.988281 196.328125 207.609375 C 197.0625 207.199219 197.984375 207.355469 198.421875 208.03125"/><path fill="#522B25" d="M 197.109375 208.742188 C 197.441406 209.257812 197.210938 210.03125 196.554688 210.402344 C 194.402344 211.617188 191.988281 212.292969 189.515625 212.371094 C 188.761719 212.394531 188.164062 211.84375 188.1875 211.222656 C 188.207031 210.59375 188.746094 210.125 189.386719 210.109375 C 191.535156 210.050781 193.636719 209.46875 195.515625 208.421875 C 196.074219 208.113281 196.773438 208.230469 197.109375 208.742188"/><path fill="#FCD978" d="M 176.085938 204.09375 C 176.144531 204.769531 175.878906 205.34375 175.496094 205.375 C 175.113281 205.40625 174.761719 204.882812 174.703125 204.207031 C 174.648438 203.53125 174.910156 202.960938 175.292969 202.925781 C 175.675781 202.894531 176.03125 203.417969 176.085938 204.09375"/><path fill="#522B25" d="M 208.535156 231.886719 C 209.714844 236.132812 206.824219 240.644531 202.074219 241.964844 C 197.324219 243.28125 192.519531 240.910156 191.335938 236.660156 L 208.535156 231.886719"/><path fill="#63352F" d="M 207.386719 232.207031 L 191.335938 236.660156 C 192.203125 239.773438 195.011719 241.875 198.320312 242.261719 C 199.148438 242.25 199.988281 242.132812 200.832031 241.898438 C 205.4375 240.621094 208.296875 236.339844 207.386719 232.207031"/><path fill="#854944" d="M 207.425781 236.933594 C 207.503906 237.488281 205.335938 240.148438 201.832031 241.089844 C 198.339844 242.089844 195.113281 240.925781 194.890625 240.410156 C 194.617188 239.855469 197.609375 240.199219 201.292969 239.15625 C 204.988281 238.152344 207.375 236.316406 207.425781 236.933594"/><path fill="#995655" d="M 198.410156 239.25 C 198.550781 239.753906 197.890625 240.375 196.9375 240.636719 C 195.984375 240.902344 195.101562 240.710938 194.960938 240.207031 C 194.820312 239.703125 195.480469 239.082031 196.429688 238.816406 C 197.382812 238.550781 198.269531 238.746094 198.410156 239.25"/><path fill="#784639" d="M 209.761719 229.859375 C 210.085938 231.90625 208.902344 233.988281 207.117188 234.503906 C 202.757812 235.710938 198.398438 236.921875 194.039062 238.132812 C 192.242188 238.609375 190.152344 237.4375 189.375 235.519531 C 187.6875 231.261719 186 227.003906 184.3125 222.746094 C 183.535156 220.832031 184.507812 218.230469 186.601562 217.183594 C 191.628906 214.699219 197.085938 213.1875 202.675781 212.722656 C 205.007812 212.542969 207.183594 214.265625 207.507812 216.308594 C 208.257812 220.824219 209.007812 225.34375 209.761719 229.859375"/><path fill="#C56E42" d="M 207.800781 228.851562 C 208.03125 230.476562 206.945312 232.269531 205.371094 232.847656 C 201.53125 234.234375 197.699219 235.652344 193.878906 237.101562 C 192.3125 237.703125 190.460938 236.746094 189.738281 234.933594 C 188.183594 230.976562 186.617188 226.972656 185.035156 222.921875 C 184.296875 221.058594 185.355469 219.238281 187.402344 218.863281 C 192.304688 217.933594 197.210938 217.003906 202.117188 216.078125 C 204.160156 215.703125 205.996094 216.671875 206.214844 218.257812 C 206.730469 221.746094 207.261719 225.277344 207.800781 228.851562"/><path fill="#522B25" d="M 200.273438 214.175781 C 199.960938 214.675781 197.527344 215.320312 194.941406 216.050781 C 192.351562 216.757812 189.933594 217.460938 189.40625 217.191406 C 188.878906 216.933594 191.089844 215.496094 194.523438 214.546875 C 197.957031 213.589844 200.59375 213.683594 200.273438 214.175781"/><path fill="#784639" d="M 204.929688 224.609375 C 205.199219 225.589844 204.617188 226.605469 203.628906 226.878906 L 192.917969 229.855469 C 191.925781 230.128906 190.902344 229.558594 190.628906 228.578125 L 189.144531 223.226562 C 188.871094 222.25 189.453125 221.230469 190.445312 220.957031 L 201.152344 217.984375 C 202.144531 217.707031 203.167969 218.28125 203.441406 219.257812 L 204.929688 224.609375"/><path fill="#C56E42" d="M 203.835938 224.5 C 204.085938 225.398438 203.5625 226.324219 202.664062 226.574219 L 192.96875 229.265625 C 192.070312 229.515625 191.140625 228.992188 190.890625 228.09375 L 189.53125 223.199219 C 189.28125 222.304688 189.808594 221.375 190.703125 221.125 L 200.398438 218.433594 C 201.296875 218.183594 202.226562 218.710938 202.476562 219.605469 L 203.835938 224.5"/><path fill="#97C9C9" d="M 193.378906 225.070312 C 193.351562 225.054688 192.90625 224.722656 193.015625 224.132812 L 193.03125 224.046875 C 193.15625 223.355469 193.445312 221.738281 195.898438 221.035156 L 195.957031 221.015625 C 198.421875 220.355469 199.507812 221.59375 199.96875 222.121094 L 200.027344 222.1875 C 200.425781 222.636719 200.207031 223.164062 200.203125 223.167969 L 199.484375 225.226562 L 197.265625 225.835938 L 195.050781 226.457031 L 193.378906 225.070312"/><path fill="#66A2A2" d="M 193.929688 224.875 C 193.90625 224.855469 193.519531 224.535156 193.597656 223.992188 L 193.609375 223.910156 C 193.695312 223.269531 193.894531 221.769531 195.945312 221.175781 L 195.992188 221.164062 C 198.054688 220.613281 199 221.796875 199.402344 222.300781 L 199.457031 222.363281 C 199.804688 222.792969 199.632812 223.277344 199.632812 223.285156 L 199.078125 225.183594 L 197.226562 225.691406 L 195.375 226.210938 L 193.929688 224.875"/><path fill="#468587" d="M 194.300781 224.257812 C 194.285156 224.246094 194.015625 224.148438 194.101562 223.824219 C 194.105469 223.804688 194.109375 223.789062 194.113281 223.773438 C 194.238281 223.449219 194.378906 222.261719 196.085938 221.671875 C 196.101562 221.667969 196.113281 221.664062 196.125 221.664062 C 197.898438 221.304688 198.632812 222.238281 198.898438 222.449219 C 198.914062 222.460938 198.925781 222.472656 198.9375 222.484375 C 199.179688 222.714844 198.988281 222.9375 198.988281 222.945312 C 198.777344 223.261719 198.574219 223.621094 198.382812 224.003906 C 197.878906 224.144531 197.378906 224.285156 196.875 224.425781 C 196.371094 224.570312 195.867188 224.714844 195.367188 224.855469 C 195.003906 224.625 194.648438 224.421875 194.300781 224.257812"/><path fill="#784639" d="M 195.339844 223.6875 L 196.523438 225.726562 L 197.707031 225.410156 Z M 195.339844 223.6875"/><path fill="#A65F40" d="M 196.679688 225.46875 L 197.488281 225.253906 L 195.867188 224.070312 Z M 196.679688 225.46875"/><path fill="#CDEEEB" d="M 194.25 222.621094 C 194.25 222.621094 193.589844 225.632812 195.941406 225.726562 C 195.941406 225.726562 193.804688 224.90625 194.753906 222.648438 C 194.753906 222.648438 194.683594 222.085938 194.25 222.621094"/><path fill="#FFF" d="M 197.371094 221.589844 C 197.441406 221.84375 197.207031 222.132812 196.84375 222.234375 C 196.480469 222.335938 196.128906 222.210938 196.058594 221.953125 C 195.988281 221.699219 196.226562 221.410156 196.585938 221.308594 C 196.949219 221.207031 197.300781 221.332031 197.371094 221.589844"/><path fill="#CDEEEB" d="M 199 223.871094 C 199.183594 224.0625 199.117188 224.429688 198.847656 224.691406 C 198.578125 224.953125 198.210938 225.011719 198.023438 224.824219 C 197.839844 224.632812 197.90625 224.265625 198.175781 224.003906 C 198.445312 223.742188 198.8125 223.683594 199 223.871094"/><path fill="#F9AE61" d="M 193.542969 227.554688 C 193.542969 227.554688 200.105469 226.644531 200.882812 224.351562 C 200.882812 224.351562 202.039062 222.535156 203.097656 224.238281 C 203.097656 224.238281 200.511719 228.695312 193.542969 227.554688"/><path fill="#F9AE61" d="M 190.851562 226.058594 C 190.851562 226.058594 189.136719 221.878906 191.503906 221.222656 L 201.058594 218.902344 C 201.058594 218.902344 193.898438 221.859375 191.917969 222.3125 C 191.917969 222.3125 191.085938 224.109375 192.179688 225.246094 C 192.179688 225.246094 191.980469 226.519531 190.851562 226.058594"/><path fill="#FCD978" d="M 200.957031 226.117188 C 201.058594 226.480469 200.570312 226.933594 199.867188 227.128906 C 199.164062 227.324219 198.511719 227.1875 198.410156 226.824219 C 198.3125 226.464844 198.800781 226.011719 199.503906 225.816406 C 200.207031 225.621094 200.859375 225.757812 200.957031 226.117188"/><path fill="#FCD978" d="M 193.152344 221.972656 C 193.242188 222.289062 192.761719 222.703125 192.078125 222.890625 C 191.398438 223.082031 190.773438 222.976562 190.683594 222.65625 C 190.59375 222.335938 191.074219 221.925781 191.757812 221.734375 C 192.441406 221.546875 193.066406 221.652344 193.152344 221.972656"/><path fill="#F9AE61" d="M 190.730469 218.132812 C 189.613281 218.34375 188.496094 218.558594 187.375 218.769531 C 185.253906 219.15625 184.15625 221.046875 184.921875 222.980469 C 185.160156 223.59375 185.398438 224.203125 185.636719 224.816406 C 185.949219 223.222656 187.023438 220.320312 190.730469 218.132812"/><path fill="#522B25" d="M 218.226562 199.871094 C 218.226562 199.871094 216.65625 204.277344 213.988281 203.292969 C 211.320312 202.304688 211.414062 199.964844 212.441406 197.195312 C 212.441406 197.195312 213.070312 196.296875 213.75 196.550781 C 214.429688 196.800781 212.984375 198.375 213.296875 199.054688 C 213.609375 199.734375 214.507812 198.851562 214.992188 197.546875 C 215.472656 196.242188 216.898438 197.027344 217.945312 197.414062 C 218.992188 197.800781 218.789062 198.355469 218.226562 199.871094"/><path fill="#713A34" d="M 217.246094 200.125 C 217.691406 198.929688 217.851562 198.492188 217.023438 198.1875 C 216.199219 197.882812 215.074219 197.261719 214.695312 198.292969 C 214.3125 199.324219 213.605469 200.019531 213.359375 199.484375 C 213.3125 199.386719 213.3125 199.265625 213.339844 199.132812 C 213.328125 199.109375 213.3125 199.085938 213.296875 199.054688 C 213.128906 198.6875 213.476562 198.050781 213.722656 197.507812 C 213.71875 197.507812 213.71875 197.507812 213.714844 197.503906 C 213.175781 197.304688 212.679688 198.011719 212.679688 198.011719 C 211.871094 200.199219 211.796875 202.046875 213.902344 202.828125 C 216.007812 203.605469 217.246094 200.125 217.246094 200.125"/><path fill="#C56E42" d="M 216.46875 206.132812 C 215.792969 207.964844 213.753906 208.898438 211.921875 208.222656 C 210.089844 207.542969 209.15625 205.511719 209.832031 203.679688 C 210.511719 201.847656 212.546875 200.914062 214.378906 201.589844 C 216.210938 202.269531 217.148438 204.300781 216.46875 206.132812"/><path fill="#F9AE61" d="M 215.996094 205.957031 C 215.988281 207.242188 214.375 207.6875 212.390625 206.957031 C 210.410156 206.222656 209.472656 204.835938 210.304688 203.855469 C 211.132812 202.871094 212.742188 202.441406 213.902344 202.871094 C 215.066406 203.300781 216.007812 204.671875 215.996094 205.957031"/><path fill="#FCD978" d="M 215.429688 205.746094 C 214.984375 206.164062 213.96875 205.804688 213.160156 204.941406 C 212.351562 204.082031 212.058594 203.046875 212.503906 202.628906 C 212.949219 202.210938 213.964844 202.570312 214.773438 203.429688 C 215.582031 204.292969 215.875 205.328125 215.429688 205.746094"/><path fill="#522B25" d="M 164.125 214.160156 C 164.125 214.160156 168.019531 216.761719 169.574219 214.378906 C 171.125 212 169.652344 210.175781 167.175781 208.5625 C 167.175781 208.5625 166.136719 208.21875 165.742188 208.824219 C 165.347656 209.433594 167.445312 209.835938 167.601562 210.570312 C 167.753906 211.300781 166.507812 211.125 165.339844 210.363281 C 164.171875 209.605469 163.496094 211.085938 162.886719 212.019531 C 162.28125 212.953125 162.773438 213.277344 164.125 214.160156"/><path fill="#713A34" d="M 165.066406 213.78125 C 163.996094 213.082031 163.609375 212.828125 164.089844 212.09375 C 164.570312 211.355469 165.101562 210.1875 166.023438 210.785156 C 166.945312 211.386719 167.929688 211.523438 167.808594 210.949219 C 167.785156 210.84375 167.710938 210.746094 167.613281 210.65625 C 167.609375 210.628906 167.605469 210.601562 167.601562 210.570312 C 167.515625 210.171875 166.855469 209.867188 166.335938 209.578125 C 166.335938 209.578125 166.339844 209.574219 166.339844 209.570312 C 166.652344 209.09375 167.472656 209.363281 167.472656 209.363281 C 169.425781 210.636719 170.589844 212.074219 169.363281 213.957031 C 168.136719 215.832031 165.066406 213.78125 165.066406 213.78125"/><path fill="#C56E42" d="M 169.277344 218.140625 C 170.910156 219.207031 173.105469 218.746094 174.171875 217.109375 C 175.238281 215.472656 174.777344 213.28125 173.140625 212.214844 C 171.503906 211.148438 169.3125 211.613281 168.242188 213.246094 C 167.175781 214.882812 167.636719 217.074219 169.277344 218.140625"/><path fill="#F9AE61" d="M 169.550781 217.71875 C 170.324219 218.746094 171.886719 218.140625 173.039062 216.371094 C 174.195312 214.601562 174.117188 212.929688 172.867188 212.636719 C 171.613281 212.34375 170.066406 212.957031 169.390625 213.992188 C 168.710938 215.03125 168.777344 216.691406 169.550781 217.71875"/><path fill="#FCD978" d="M 169.878906 217.207031 C 170.484375 217.277344 171.085938 216.386719 171.222656 215.210938 C 171.355469 214.039062 170.972656 213.035156 170.367188 212.964844 C 169.761719 212.894531 169.160156 213.789062 169.023438 214.960938 C 168.890625 216.132812 169.273438 217.140625 169.878906 217.207031"/><g fill="#CC4186"><g><g><path d="M 2.390625 0 L 2.390625 -4.609375 L 12.453125 -4.609375 L 13.453125 -5.578125 L 13.453125 -6.328125 L 12.453125 -7.328125 L 5.265625 -7.328125 L 1.4375 -10.8125 L 1.4375 -15.203125 L 5.21875 -18.671875 L 18.171875 -18.671875 L 18.171875 -14.09375 L 8.796875 -14.09375 L 7.90625 -13.09375 L 7.90625 -12.59375 L 8.875 -11.59375 L 16.171875 -11.59375 L 20 -8.125 L 20 -3.5 L 16.203125 0 Z M 2.390625 0" transform="translate(135.588 270.353)"/></g></g></g><g fill="#CC4186"><g><g><path d="M 2.390625 0 L 2.390625 -4.609375 L 12.453125 -4.609375 L 13.453125 -5.578125 L 13.453125 -6.328125 L 12.453125 -7.328125 L 5.265625 -7.328125 L 1.4375 -10.8125 L 1.4375 -15.203125 L 5.21875 -18.671875 L 18.171875 -18.671875 L 18.171875 -14.09375 L 8.796875 -14.09375 L 7.90625 -13.09375 L 7.90625 -12.59375 L 8.875 -11.59375 L 16.171875 -11.59375 L 20 -8.125 L 20 -3.5 L 16.203125 0 Z M 2.390625 0" transform="translate(157.012 270.353)"/></g></g></g><g fill="#CC4186"><g><g><path d="M 2.328125 0 L 2.328125 -26.375 L 9.015625 -26.375 L 9.015625 -16.5 L 11.734375 -18.71875 L 18.171875 -18.71875 L 22.15625 -14.703125 L 22.15625 0 L 15.453125 0 L 15.453125 -13.78125 L 14.234375 -14.921875 L 12.3125 -14.921875 L 9.015625 -12.125 L 9.015625 0 Z M 2.328125 0" transform="translate(178.436 270.353)"/></g></g></g><g fill="#CC4186"><g><g><path d="M 5.765625 0 L 1.78125 -3.96875 L 1.78125 -14.703125 L 5.765625 -18.671875 L 17.421875 -18.671875 L 21.390625 -14.703125 L 21.390625 -3.96875 L 17.421875 0 Z M 9.734375 -3.71875 L 13.453125 -3.71875 L 14.703125 -5.015625 L 14.703125 -13.703125 L 13.453125 -14.953125 L 9.734375 -14.953125 L 8.484375 -13.703125 L 8.484375 -5.015625 Z M 9.734375 -3.71875" transform="translate(202.542 270.353)"/></g></g></g><g fill="#CC4186"><g><g><path d="M 6.1875 0 L 2.4375 -3.46875 L 2.4375 -14.53125 L 1.078125 -14.53125 L 1.078125 -18.671875 L 2.6875 -18.671875 L 4.71875 -24.015625 L 9.125 -24.015625 L 9.125 -18.671875 L 12.0625 -18.671875 L 12.0625 -14.53125 L 9.125 -14.53125 L 9.125 -5.21875 L 10.09375 -4.265625 L 12.8125 -4.265625 L 12.8125 0 Z M 6.1875 0" transform="translate(225.718 270.353)"/></g></g></g><g fill="#23346B"><g><g><path d="M 4.015625 0.125 C 3.222656 0.125 2.5625 0.0078125 2.03125 -0.21875 C 1.5 -0.445312 1.097656 -0.742188 0.828125 -1.109375 C 0.566406 -1.484375 0.425781 -1.878906 0.40625 -2.296875 C 0.40625 -2.367188 0.425781 -2.429688 0.46875 -2.484375 C 0.519531 -2.535156 0.582031 -2.5625 0.65625 -2.5625 L 1.984375 -2.5625 C 2.097656 -2.5625 2.179688 -2.539062 2.234375 -2.5 C 2.296875 -2.457031 2.347656 -2.40625 2.390625 -2.34375 C 2.453125 -2.1875 2.546875 -2.039062 2.671875 -1.90625 C 2.796875 -1.78125 2.96875 -1.675781 3.1875 -1.59375 C 3.40625 -1.507812 3.679688 -1.46875 4.015625 -1.46875 C 4.546875 -1.46875 4.941406 -1.550781 5.203125 -1.71875 C 5.472656 -1.894531 5.609375 -2.132812 5.609375 -2.4375 C 5.609375 -2.644531 5.535156 -2.8125 5.390625 -2.9375 C 5.242188 -3.070312 5.015625 -3.191406 4.703125 -3.296875 C 4.398438 -3.398438 4 -3.507812 3.5 -3.625 C 2.875 -3.769531 2.347656 -3.945312 1.921875 -4.15625 C 1.492188 -4.363281 1.171875 -4.628906 0.953125 -4.953125 C 0.734375 -5.285156 0.625 -5.703125 0.625 -6.203125 C 0.625 -6.691406 0.757812 -7.125 1.03125 -7.5 C 1.300781 -7.882812 1.679688 -8.1875 2.171875 -8.40625 C 2.671875 -8.625 3.257812 -8.734375 3.9375 -8.734375 C 4.488281 -8.734375 4.972656 -8.65625 5.390625 -8.5 C 5.816406 -8.351562 6.171875 -8.160156 6.453125 -7.921875 C 6.734375 -7.691406 6.945312 -7.441406 7.09375 -7.171875 C 7.238281 -6.898438 7.316406 -6.632812 7.328125 -6.375 C 7.328125 -6.300781 7.300781 -6.238281 7.25 -6.1875 C 7.207031 -6.132812 7.148438 -6.109375 7.078125 -6.109375 L 5.6875 -6.109375 C 5.613281 -6.109375 5.539062 -6.125 5.46875 -6.15625 C 5.40625 -6.1875 5.347656 -6.242188 5.296875 -6.328125 C 5.253906 -6.554688 5.113281 -6.742188 4.875 -6.890625 C 4.632812 -7.046875 4.320312 -7.125 3.9375 -7.125 C 3.53125 -7.125 3.207031 -7.050781 2.96875 -6.90625 C 2.738281 -6.769531 2.625 -6.550781 2.625 -6.25 C 2.625 -6.050781 2.6875 -5.882812 2.8125 -5.75 C 2.9375 -5.613281 3.140625 -5.492188 3.421875 -5.390625 C 3.703125 -5.285156 4.078125 -5.175781 4.546875 -5.0625 C 5.265625 -4.914062 5.847656 -4.738281 6.296875 -4.53125 C 6.742188 -4.320312 7.070312 -4.054688 7.28125 -3.734375 C 7.5 -3.410156 7.609375 -3.003906 7.609375 -2.515625 C 7.609375 -1.960938 7.457031 -1.488281 7.15625 -1.09375 C 6.851562 -0.695312 6.429688 -0.394531 5.890625 -0.1875 C 5.347656 0.0195312 4.722656 0.125 4.015625 0.125 Z M 4.015625 0.125" transform="translate(102.596 283.682)"/></g></g></g><g fill="#23346B"><g><g><path d="M 4.328125 0.125 C 3.566406 0.125 2.914062 -0.00390625 2.375 -0.265625 C 1.832031 -0.523438 1.410156 -0.898438 1.109375 -1.390625 C 0.816406 -1.890625 0.65625 -2.492188 0.625 -3.203125 C 0.613281 -3.546875 0.609375 -3.910156 0.609375 -4.296875 C 0.609375 -4.679688 0.613281 -5.046875 0.625 -5.390625 C 0.65625 -6.097656 0.820312 -6.695312 1.125 -7.1875 C 1.425781 -7.6875 1.847656 -8.066406 2.390625 -8.328125 C 2.929688 -8.597656 3.578125 -8.734375 4.328125 -8.734375 C 4.890625 -8.734375 5.390625 -8.660156 5.828125 -8.515625 C 6.273438 -8.378906 6.660156 -8.179688 6.984375 -7.921875 C 7.316406 -7.660156 7.578125 -7.351562 7.765625 -7 C 7.953125 -6.644531 8.046875 -6.25 8.046875 -5.8125 C 8.054688 -5.738281 8.035156 -5.675781 7.984375 -5.625 C 7.929688 -5.582031 7.867188 -5.5625 7.796875 -5.5625 L 6.375 -5.5625 C 6.28125 -5.5625 6.203125 -5.582031 6.140625 -5.625 C 6.085938 -5.664062 6.046875 -5.742188 6.015625 -5.859375 C 5.890625 -6.359375 5.679688 -6.691406 5.390625 -6.859375 C 5.109375 -7.035156 4.753906 -7.125 4.328125 -7.125 C 3.828125 -7.125 3.425781 -6.984375 3.125 -6.703125 C 2.832031 -6.429688 2.675781 -5.976562 2.65625 -5.34375 C 2.632812 -4.664062 2.632812 -3.972656 2.65625 -3.265625 C 2.675781 -2.628906 2.832031 -2.171875 3.125 -1.890625 C 3.425781 -1.609375 3.828125 -1.46875 4.328125 -1.46875 C 4.753906 -1.46875 5.113281 -1.554688 5.40625 -1.734375 C 5.695312 -1.921875 5.898438 -2.257812 6.015625 -2.75 C 6.046875 -2.863281 6.085938 -2.941406 6.140625 -2.984375 C 6.203125 -3.023438 6.28125 -3.046875 6.375 -3.046875 L 7.796875 -3.046875 C 7.867188 -3.046875 7.929688 -3.019531 7.984375 -2.96875 C 8.035156 -2.925781 8.054688 -2.867188 8.046875 -2.796875 C 8.046875 -2.359375 7.953125 -1.960938 7.765625 -1.609375 C 7.578125 -1.253906 7.316406 -0.945312 6.984375 -0.6875 C 6.660156 -0.425781 6.273438 -0.222656 5.828125 -0.078125 C 5.390625 0.0546875 4.890625 0.125 4.328125 0.125 Z M 4.328125 0.125" transform="translate(115.526 283.682)"/></g></g></g><g fill="#23346B"><g><g><path d="M 1.203125 0 C 1.117188 0 1.046875 -0.0234375 0.984375 -0.078125 C 0.929688 -0.140625 0.90625 -0.21875 0.90625 -0.3125 L 0.90625 -8.296875 C 0.90625 -8.390625 0.929688 -8.460938 0.984375 -8.515625 C 1.046875 -8.578125 1.117188 -8.609375 1.203125 -8.609375 L 4.46875 -8.609375 C 5.5 -8.609375 6.304688 -8.367188 6.890625 -7.890625 C 7.484375 -7.421875 7.78125 -6.742188 7.78125 -5.859375 C 7.78125 -5.265625 7.632812 -4.765625 7.34375 -4.359375 C 7.0625 -3.960938 6.679688 -3.664062 6.203125 -3.46875 L 7.9375 -0.390625 C 7.96875 -0.335938 7.984375 -0.296875 7.984375 -0.265625 C 7.984375 -0.191406 7.957031 -0.128906 7.90625 -0.078125 C 7.851562 -0.0234375 7.789062 0 7.71875 0 L 6.34375 0 C 6.195312 0 6.085938 -0.0351562 6.015625 -0.109375 C 5.941406 -0.191406 5.890625 -0.265625 5.859375 -0.328125 L 4.359375 -3.140625 L 2.859375 -3.140625 L 2.859375 -0.3125 C 2.859375 -0.21875 2.828125 -0.140625 2.765625 -0.078125 C 2.710938 -0.0234375 2.644531 0 2.5625 0 Z M 2.859375 -4.703125 L 4.453125 -4.703125 C 4.890625 -4.703125 5.21875 -4.804688 5.4375 -5.015625 C 5.65625 -5.222656 5.765625 -5.507812 5.765625 -5.875 C 5.765625 -6.25 5.65625 -6.539062 5.4375 -6.75 C 5.226562 -6.96875 4.898438 -7.078125 4.453125 -7.078125 L 2.859375 -7.078125 Z M 2.859375 -4.703125" transform="translate(128.96 283.682)"/></g></g></g><g fill="#23346B"><g><g><path d="M 1.203125 0 C 1.117188 0 1.046875 -0.0234375 0.984375 -0.078125 C 0.929688 -0.140625 0.90625 -0.21875 0.90625 -0.3125 L 0.90625 -8.296875 C 0.90625 -8.390625 0.929688 -8.460938 0.984375 -8.515625 C 1.046875 -8.578125 1.117188 -8.609375 1.203125 -8.609375 L 6.78125 -8.609375 C 6.875 -8.609375 6.945312 -8.578125 7 -8.515625 C 7.0625 -8.460938 7.09375 -8.390625 7.09375 -8.296875 L 7.09375 -7.3125 C 7.09375 -7.226562 7.0625 -7.15625 7 -7.09375 C 6.945312 -7.039062 6.875 -7.015625 6.78125 -7.015625 L 2.796875 -7.015625 L 2.796875 -5.09375 L 6.515625 -5.09375 C 6.609375 -5.09375 6.679688 -5.0625 6.734375 -5 C 6.796875 -4.945312 6.828125 -4.875 6.828125 -4.78125 L 6.828125 -3.875 C 6.828125 -3.789062 6.796875 -3.71875 6.734375 -3.65625 C 6.679688 -3.59375 6.609375 -3.5625 6.515625 -3.5625 L 2.796875 -3.5625 L 2.796875 -1.59375 L 6.890625 -1.59375 C 6.972656 -1.59375 7.039062 -1.5625 7.09375 -1.5 C 7.15625 -1.445312 7.1875 -1.378906 7.1875 -1.296875 L 7.1875 -0.3125 C 7.1875 -0.21875 7.15625 -0.140625 7.09375 -0.078125 C 7.039062 -0.0234375 6.972656 0 6.890625 0 Z M 1.203125 0" transform="translate(142.26 283.682)"/></g></g></g><g fill="#23346B"><g><g><path d="M 1.203125 0 C 1.117188 0 1.046875 -0.0234375 0.984375 -0.078125 C 0.929688 -0.140625 0.90625 -0.21875 0.90625 -0.3125 L 0.90625 -8.296875 C 0.90625 -8.390625 0.929688 -8.460938 0.984375 -8.515625 C 1.046875 -8.578125 1.117188 -8.609375 1.203125 -8.609375 L 6.78125 -8.609375 C 6.875 -8.609375 6.945312 -8.578125 7 -8.515625 C 7.0625 -8.460938 7.09375 -8.390625 7.09375 -8.296875 L 7.09375 -7.3125 C 7.09375 -7.226562 7.0625 -7.15625 7 -7.09375 C 6.945312 -7.039062 6.875 -7.015625 6.78125 -7.015625 L 2.796875 -7.015625 L 2.796875 -5.09375 L 6.515625 -5.09375 C 6.609375 -5.09375 6.679688 -5.0625 6.734375 -5 C 6.796875 -4.945312 6.828125 -4.875 6.828125 -4.78125 L 6.828125 -3.875 C 6.828125 -3.789062 6.796875 -3.71875 6.734375 -3.65625 C 6.679688 -3.59375 6.609375 -3.5625 6.515625 -3.5625 L 2.796875 -3.5625 L 2.796875 -1.59375 L 6.890625 -1.59375 C 6.972656 -1.59375 7.039062 -1.5625 7.09375 -1.5 C 7.15625 -1.445312 7.1875 -1.378906 7.1875 -1.296875 L 7.1875 -0.3125 C 7.1875 -0.21875 7.15625 -0.140625 7.09375 -0.078125 C 7.039062 -0.0234375 6.972656 0 6.890625 0 Z M 1.203125 0" transform="translate(154.932 283.682)"/></g></g></g><g fill="#23346B"><g><g><path d="M 1.203125 0 C 1.117188 0 1.046875 -0.0234375 0.984375 -0.078125 C 0.929688 -0.140625 0.90625 -0.21875 0.90625 -0.3125 L 0.90625 -8.296875 C 0.90625 -8.390625 0.929688 -8.460938 0.984375 -8.515625 C 1.046875 -8.578125 1.117188 -8.609375 1.203125 -8.609375 L 2.34375 -8.609375 C 2.457031 -8.609375 2.539062 -8.578125 2.59375 -8.515625 C 2.65625 -8.460938 2.695312 -8.421875 2.71875 -8.390625 L 5.984375 -3.265625 L 5.984375 -8.296875 C 5.984375 -8.390625 6.007812 -8.460938 6.0625 -8.515625 C 6.125 -8.578125 6.203125 -8.609375 6.296875 -8.609375 L 7.546875 -8.609375 C 7.640625 -8.609375 7.710938 -8.578125 7.765625 -8.515625 C 7.828125 -8.460938 7.859375 -8.390625 7.859375 -8.296875 L 7.859375 -0.3125 C 7.859375 -0.226562 7.828125 -0.15625 7.765625 -0.09375 C 7.710938 -0.03125 7.640625 0 7.546875 0 L 6.421875 0 C 6.296875 0 6.203125 -0.03125 6.140625 -0.09375 C 6.085938 -0.15625 6.050781 -0.195312 6.03125 -0.21875 L 2.78125 -5.171875 L 2.78125 -0.3125 C 2.78125 -0.21875 2.75 -0.140625 2.6875 -0.078125 C 2.632812 -0.0234375 2.5625 0 2.46875 0 Z M 1.203125 0" transform="translate(167.604 283.682)"/></g></g></g><g fill="#23346B"><g><g><path d="M 4.015625 0.125 C 3.222656 0.125 2.5625 0.0078125 2.03125 -0.21875 C 1.5 -0.445312 1.097656 -0.742188 0.828125 -1.109375 C 0.566406 -1.484375 0.425781 -1.878906 0.40625 -2.296875 C 0.40625 -2.367188 0.425781 -2.429688 0.46875 -2.484375 C 0.519531 -2.535156 0.582031 -2.5625 0.65625 -2.5625 L 1.984375 -2.5625 C 2.097656 -2.5625 2.179688 -2.539062 2.234375 -2.5 C 2.296875 -2.457031 2.347656 -2.40625 2.390625 -2.34375 C 2.453125 -2.1875 2.546875 -2.039062 2.671875 -1.90625 C 2.796875 -1.78125 2.96875 -1.675781 3.1875 -1.59375 C 3.40625 -1.507812 3.679688 -1.46875 4.015625 -1.46875 C 4.546875 -1.46875 4.941406 -1.550781 5.203125 -1.71875 C 5.472656 -1.894531 5.609375 -2.132812 5.609375 -2.4375 C 5.609375 -2.644531 5.535156 -2.8125 5.390625 -2.9375 C 5.242188 -3.070312 5.015625 -3.191406 4.703125 -3.296875 C 4.398438 -3.398438 4 -3.507812 3.5 -3.625 C 2.875 -3.769531 2.347656 -3.945312 1.921875 -4.15625 C 1.492188 -4.363281 1.171875 -4.628906 0.953125 -4.953125 C 0.734375 -5.285156 0.625 -5.703125 0.625 -6.203125 C 0.625 -6.691406 0.757812 -7.125 1.03125 -7.5 C 1.300781 -7.882812 1.679688 -8.1875 2.171875 -8.40625 C 2.671875 -8.625 3.257812 -8.734375 3.9375 -8.734375 C 4.488281 -8.734375 4.972656 -8.65625 5.390625 -8.5 C 5.816406 -8.351562 6.171875 -8.160156 6.453125 -7.921875 C 6.734375 -7.691406 6.945312 -7.441406 7.09375 -7.171875 C 7.238281 -6.898438 7.316406 -6.632812 7.328125 -6.375 C 7.328125 -6.300781 7.300781 -6.238281 7.25 -6.1875 C 7.207031 -6.132812 7.148438 -6.109375 7.078125 -6.109375 L 5.6875 -6.109375 C 5.613281 -6.109375 5.539062 -6.125 5.46875 -6.15625 C 5.40625 -6.1875 5.347656 -6.242188 5.296875 -6.328125 C 5.253906 -6.554688 5.113281 -6.742188 4.875 -6.890625 C 4.632812 -7.046875 4.320312 -7.125 3.9375 -7.125 C 3.53125 -7.125 3.207031 -7.050781 2.96875 -6.90625 C 2.738281 -6.769531 2.625 -6.550781 2.625 -6.25 C 2.625 -6.050781 2.6875 -5.882812 2.8125 -5.75 C 2.9375 -5.613281 3.140625 -5.492188 3.421875 -5.390625 C 3.703125 -5.285156 4.078125 -5.175781 4.546875 -5.0625 C 5.265625 -4.914062 5.847656 -4.738281 6.296875 -4.53125 C 6.742188 -4.320312 7.070312 -4.054688 7.28125 -3.734375 C 7.5 -3.410156 7.609375 -3.003906 7.609375 -2.515625 C 7.609375 -1.960938 7.457031 -1.488281 7.15625 -1.09375 C 6.851562 -0.695312 6.429688 -0.394531 5.890625 -0.1875 C 5.347656 0.0195312 4.722656 0.125 4.015625 0.125 Z M 4.015625 0.125" transform="translate(181.284 283.682)"/></g></g></g><g fill="#23346B"><g><g><path d="M 1.203125 0 C 1.117188 0 1.046875 -0.0234375 0.984375 -0.078125 C 0.929688 -0.140625 0.90625 -0.21875 0.90625 -0.3125 L 0.90625 -8.296875 C 0.90625 -8.390625 0.929688 -8.460938 0.984375 -8.515625 C 1.046875 -8.578125 1.117188 -8.609375 1.203125 -8.609375 L 2.5625 -8.609375 C 2.644531 -8.609375 2.710938 -8.578125 2.765625 -8.515625 C 2.828125 -8.460938 2.859375 -8.390625 2.859375 -8.296875 L 2.859375 -5.21875 L 6.203125 -5.21875 L 6.203125 -8.296875 C 6.203125 -8.390625 6.226562 -8.460938 6.28125 -8.515625 C 6.34375 -8.578125 6.414062 -8.609375 6.5 -8.609375 L 7.84375 -8.609375 C 7.9375 -8.609375 8.007812 -8.578125 8.0625 -8.515625 C 8.125 -8.460938 8.15625 -8.390625 8.15625 -8.296875 L 8.15625 -0.3125 C 8.15625 -0.21875 8.125 -0.140625 8.0625 -0.078125 C 8.007812 -0.0234375 7.9375 0 7.84375 0 L 6.5 0 C 6.414062 0 6.34375 -0.0234375 6.28125 -0.078125 C 6.226562 -0.140625 6.203125 -0.21875 6.203125 -0.3125 L 6.203125 -3.484375 L 2.859375 -3.484375 L 2.859375 -0.3125 C 2.859375 -0.21875 2.828125 -0.140625 2.765625 -0.078125 C 2.710938 -0.0234375 2.644531 0 2.5625 0 Z M 1.203125 0" transform="translate(194.215 283.682)"/></g></g></g><g fill="#23346B"><g><g><path d="M 4.328125 0.125 C 3.578125 0.125 2.929688 0.00390625 2.390625 -0.234375 C 1.859375 -0.484375 1.4375 -0.859375 1.125 -1.359375 C 0.820312 -1.859375 0.660156 -2.484375 0.640625 -3.234375 C 0.628906 -3.585938 0.625 -3.9375 0.625 -4.28125 C 0.625 -4.632812 0.628906 -4.988281 0.640625 -5.34375 C 0.660156 -6.082031 0.820312 -6.703125 1.125 -7.203125 C 1.4375 -7.710938 1.863281 -8.09375 2.40625 -8.34375 C 2.957031 -8.601562 3.597656 -8.734375 4.328125 -8.734375 C 5.046875 -8.734375 5.675781 -8.601562 6.21875 -8.34375 C 6.769531 -8.09375 7.203125 -7.710938 7.515625 -7.203125 C 7.828125 -6.703125 7.992188 -6.082031 8.015625 -5.34375 C 8.035156 -4.988281 8.046875 -4.632812 8.046875 -4.28125 C 8.046875 -3.9375 8.035156 -3.585938 8.015625 -3.234375 C 7.992188 -2.484375 7.828125 -1.859375 7.515625 -1.359375 C 7.210938 -0.859375 6.789062 -0.484375 6.25 -0.234375 C 5.707031 0.00390625 5.066406 0.125 4.328125 0.125 Z M 4.328125 -1.46875 C 4.804688 -1.46875 5.195312 -1.613281 5.5 -1.90625 C 5.8125 -2.195312 5.972656 -2.660156 5.984375 -3.296875 C 6.003906 -3.660156 6.015625 -4 6.015625 -4.3125 C 6.015625 -4.625 6.003906 -4.957031 5.984375 -5.3125 C 5.972656 -5.738281 5.894531 -6.085938 5.75 -6.359375 C 5.601562 -6.628906 5.410156 -6.820312 5.171875 -6.9375 C 4.929688 -7.0625 4.648438 -7.125 4.328125 -7.125 C 4.015625 -7.125 3.734375 -7.0625 3.484375 -6.9375 C 3.242188 -6.820312 3.050781 -6.628906 2.90625 -6.359375 C 2.757812 -6.085938 2.675781 -5.738281 2.65625 -5.3125 C 2.644531 -4.957031 2.640625 -4.625 2.640625 -4.3125 C 2.640625 -4 2.644531 -3.660156 2.65625 -3.296875 C 2.675781 -2.660156 2.835938 -2.195312 3.140625 -1.90625 C 3.453125 -1.613281 3.847656 -1.46875 4.328125 -1.46875 Z M 4.328125 -1.46875" transform="translate(208.19 283.682)"/></g></g></g><g fill="#23346B"><g><g><path d="M 3.109375 0 C 3.015625 0 2.9375 -0.0234375 2.875 -0.078125 C 2.820312 -0.140625 2.796875 -0.21875 2.796875 -0.3125 L 2.796875 -6.890625 L 0.5625 -6.890625 C 0.476562 -6.890625 0.40625 -6.914062 0.34375 -6.96875 C 0.289062 -7.03125 0.265625 -7.101562 0.265625 -7.1875 L 0.265625 -8.296875 C 0.265625 -8.390625 0.289062 -8.460938 0.34375 -8.515625 C 0.40625 -8.578125 0.476562 -8.609375 0.5625 -8.609375 L 7.015625 -8.609375 C 7.097656 -8.609375 7.164062 -8.578125 7.21875 -8.515625 C 7.28125 -8.460938 7.3125 -8.390625 7.3125 -8.296875 L 7.3125 -7.1875 C 7.3125 -7.101562 7.28125 -7.03125 7.21875 -6.96875 C 7.164062 -6.914062 7.097656 -6.890625 7.015625 -6.890625 L 4.78125 -6.890625 L 4.78125 -0.3125 C 4.78125 -0.21875 4.75 -0.140625 4.6875 -0.078125 C 4.632812 -0.0234375 4.5625 0 4.46875 0 Z M 3.109375 0" transform="translate(221.747 283.682)"/></g></g></g><g fill="#23346B"><g><g><path d="M 0.40625 0 C 0.332031 0 0.269531 -0.0234375 0.21875 -0.078125 C 0.164062 -0.128906 0.140625 -0.191406 0.140625 -0.265625 C 0.140625 -0.296875 0.144531 -0.332031 0.15625 -0.375 L 3.09375 -8.28125 C 3.113281 -8.363281 3.160156 -8.4375 3.234375 -8.5 C 3.304688 -8.570312 3.410156 -8.609375 3.546875 -8.609375 L 5.109375 -8.609375 C 5.242188 -8.609375 5.347656 -8.570312 5.421875 -8.5 C 5.492188 -8.4375 5.546875 -8.363281 5.578125 -8.28125 L 8.5 -0.375 C 8.507812 -0.332031 8.515625 -0.296875 8.515625 -0.265625 C 8.515625 -0.191406 8.488281 -0.128906 8.4375 -0.078125 C 8.382812 -0.0234375 8.320312 0 8.25 0 L 6.953125 0 C 6.835938 0 6.75 -0.0234375 6.6875 -0.078125 C 6.632812 -0.140625 6.601562 -0.195312 6.59375 -0.25 L 6.0625 -1.625 L 2.59375 -1.625 L 2.078125 -0.25 C 2.054688 -0.195312 2.015625 -0.140625 1.953125 -0.078125 C 1.898438 -0.0234375 1.816406 0 1.703125 0 Z M 3.0625 -3.203125 L 5.59375 -3.203125 L 4.328125 -6.734375 Z M 3.0625 -3.203125" transform="translate(241.881 283.682)"/></g></g></g><g fill="#23346B"><g><g><path d="M 1.203125 0 C 1.117188 0 1.046875 -0.0234375 0.984375 -0.078125 C 0.929688 -0.140625 0.90625 -0.21875 0.90625 -0.3125 L 0.90625 -8.296875 C 0.90625 -8.390625 0.929688 -8.460938 0.984375 -8.515625 C 1.046875 -8.578125 1.117188 -8.609375 1.203125 -8.609375 L 4.578125 -8.609375 C 5.242188 -8.609375 5.820312 -8.503906 6.3125 -8.296875 C 6.800781 -8.097656 7.179688 -7.789062 7.453125 -7.375 C 7.722656 -6.957031 7.859375 -6.4375 7.859375 -5.8125 C 7.859375 -5.195312 7.722656 -4.6875 7.453125 -4.28125 C 7.179688 -3.875 6.800781 -3.570312 6.3125 -3.375 C 5.820312 -3.1875 5.242188 -3.09375 4.578125 -3.09375 L 2.921875 -3.09375 L 2.921875 -0.3125 C 2.921875 -0.21875 2.890625 -0.140625 2.828125 -0.078125 C 2.773438 -0.0234375 2.707031 0 2.625 0 Z M 2.90625 -4.609375 L 4.515625 -4.609375 C 4.929688 -4.609375 5.253906 -4.707031 5.484375 -4.90625 C 5.710938 -5.113281 5.828125 -5.421875 5.828125 -5.828125 C 5.828125 -6.191406 5.722656 -6.488281 5.515625 -6.71875 C 5.304688 -6.957031 4.972656 -7.078125 4.515625 -7.078125 L 2.90625 -7.078125 Z M 2.90625 -4.609375" transform="translate(255.45 283.682)"/></g></g></g><g fill="#23346B"><g><g><path d="M 1.203125 0 C 1.117188 0 1.046875 -0.0234375 0.984375 -0.078125 C 0.929688 -0.140625 0.90625 -0.21875 0.90625 -0.3125 L 0.90625 -8.296875 C 0.90625 -8.390625 0.929688 -8.460938 0.984375 -8.515625 C 1.046875 -8.578125 1.117188 -8.609375 1.203125 -8.609375 L 2.625 -8.609375 C 2.707031 -8.609375 2.773438 -8.578125 2.828125 -8.515625 C 2.890625 -8.460938 2.921875 -8.390625 2.921875 -8.296875 L 2.921875 -0.3125 C 2.921875 -0.21875 2.890625 -0.140625 2.828125 -0.078125 C 2.773438 -0.0234375 2.707031 0 2.625 0 Z M 1.203125 0" transform="translate(268.578 283.682)"/></g></g></g></svg>