<svg xmlns="http://www.w3.org/2000/svg" width="375" viewBox="0 0 375 375" height="375" version="1.0"><path fill="#F469A9" d="M 248.75 55.058594 C 252.609375 62.007812 258.714844 64.5 262.96875 61.367188 C 267.257812 58.285156 266.765625 51.703125 261.339844 45.898438 C 255.925781 40.097656 249.402344 37.054688 246.734375 39.054688 C 244.015625 40.976562 244.898438 48.121094 248.75 55.058594"/><path fill="#A83573" d="M 84.601562 188.476562 L 196.75 284.375"/><path fill="#A83573" d="M 195.492188 285.847656 L 83.34375 189.945312 L 85.859375 187.003906 L 198.003906 282.910156 L 195.492188 285.847656"/><path fill="#A83573" d="M 165.035156 162.179688 L 211.441406 262.726562"/><path fill="#A83573" d="M 209.6875 263.535156 L 163.28125 162.988281 L 166.789062 161.367188 L 213.195312 261.910156 L 209.6875 263.535156"/><path fill="#A83573" d="M 230.003906 146.710938 L 238.511719 254.988281"/><path fill="#A83573" d="M 236.582031 255.140625 L 228.078125 146.859375 L 231.929688 146.558594 L 240.4375 254.839844 L 236.582031 255.140625"/><path fill="#A83573" d="M 284.917969 128.921875 L 256.980469 262.542969"/><path fill="#A83573" d="M 258.871094 262.9375 L 255.085938 262.144531 L 283.023438 128.527344 L 286.8125 129.316406 L 258.871094 262.9375"/><path fill="#A83573" d="M 59.851562 177.648438 C 59.851562 177.648438 87.695312 216.320312 101.617188 177.648438 C 101.617188 177.648438 148.15625 199.671875 164.265625 166.820312 C 164.265625 166.820312 202.933594 186.15625 235.417969 147.484375 C 235.417969 147.484375 274.085938 167.59375 288.011719 126.601562 C 288.011719 126.601562 316.625 149.03125 322.816406 115.773438 C 329 82.515625 325.132812 112.679688 325.132812 112.679688 C 325.132812 112.679688 123.273438 87.929688 59.078125 174.554688"/><path fill="#CC4286" d="M 53.925781 176.886719 C 53.925781 176.886719 64.367188 194.289062 82.925781 182.109375 C 82.925781 182.109375 98.011719 176.308594 94.53125 159.484375 C 94.53125 159.484375 155.433594 188.484375 180.375 133.964844 C 180.375 133.964844 241.859375 164.125 270.277344 113.664062 C 270.277344 113.664062 324.804688 147.304688 328.285156 106.125 C 328.285156 106.125 317.839844 -0.0195312 174.574219 16.21875 C 174.574219 16.21875 14.746094 34.589844 53.925781 176.886719"/><path fill="#F25299" d="M 87.695312 115 C 87.695312 115 87.695312 155.21875 58.304688 148.257812 C 58.304688 148.257812 31.234375 133.5625 66.039062 79.421875 C 66.039062 79.421875 92.335938 38.429688 143.382812 26.832031 C 143.382812 26.832031 218.402344 2.082031 269.449219 46.9375 C 269.449219 46.9375 293.425781 72.464844 253.207031 74.011719 C 253.207031 74.011719 260.941406 100.304688 219.949219 104.171875 C 219.949219 104.171875 176.636719 108.039062 167.355469 90.25 C 167.355469 90.25 161.171875 128.921875 120.179688 128.921875 C 120.179688 128.921875 96.203125 128.921875 87.695312 115"/><path fill="#F469A9" d="M 81.21875 111.601562 C 82.917969 125.148438 76.835938 134.785156 67.585938 134.730469 C 58.335938 134.785156 52.257812 125.148438 53.957031 111.601562 C 55.652344 98.078125 61.753906 87.261719 67.585938 87.335938 C 73.417969 87.261719 79.523438 98.078125 81.21875 111.601562"/><path fill="#F469A9" d="M 138.097656 83.28125 C 140.617188 103.785156 131.59375 118.367188 117.859375 118.285156 C 104.125 118.367188 95.097656 103.785156 97.621094 83.28125 C 100.136719 62.808594 109.203125 46.433594 117.859375 46.550781 C 126.515625 46.433594 135.578125 62.808594 138.097656 83.28125"/><path fill="#F469A9" d="M 168.511719 64.453125 C 175.792969 77.570312 187.320312 82.277344 195.347656 76.363281 C 203.449219 70.542969 202.515625 58.125 192.277344 47.164062 C 182.050781 36.214844 169.738281 30.476562 164.703125 34.242188 C 159.574219 37.875 161.242188 51.359375 168.511719 64.453125"/><path fill="#CC4286" d="M 93.882812 151.351562 L 198.292969 277.417969"/><path fill="#CC4286" d="M 196.804688 278.648438 L 92.394531 152.585938 L 95.371094 150.117188 L 199.78125 276.183594 L 196.804688 278.648438"/><path fill="#CC4286" d="M 182.050781 124.28125 L 220.152344 252.867188"/><path fill="#CC4286" d="M 218.300781 253.417969 L 180.195312 124.832031 L 183.90625 123.734375 L 222.007812 252.320312 L 218.300781 253.417969"/><path fill="#CC4286" d="M 271.769531 104.171875 L 251.578125 266.683594"/><path fill="#CC4286" d="M 253.496094 266.921875 L 249.65625 266.445312 L 269.847656 103.933594 L 273.6875 104.410156 L 253.496094 266.921875"/><path fill="#CC4286" d="M 325.132812 112.679688 L 258.75 263.320312"/><path fill="#CC4286" d="M 260.519531 264.101562 L 256.980469 262.542969 L 323.363281 111.898438 L 326.90625 113.457031 L 260.519531 264.101562"/><path fill="#522B24" d="M 199.039062 330.703125 C 197.5 330.703125 195.976562 330.449219 194.46875 329.9375 C 183.460938 326.195312 178.792969 309.929688 178.300781 308.085938 L 185.769531 306.078125 L 182.03125 307.082031 L 185.765625 306.074219 C 186.828125 309.980469 190.910156 320.566406 196.964844 322.617188 C 199.539062 323.488281 202.414062 322.671875 205.75 320.117188 L 210.449219 326.257812 C 206.582031 329.214844 202.761719 330.703125 199.039062 330.703125"/><path fill="#522B24" d="M 273.117188 314.742188 L 270.644531 307.414062 C 274.589844 306.082031 277.097656 303.957031 278.3125 300.914062 C 280.820312 294.625 277.265625 285.46875 275.683594 282.46875 L 282.511719 278.839844 C 282.8125 279.40625 289.839844 292.824219 285.507812 303.75 C 283.433594 308.96875 279.269531 312.664062 273.117188 314.742188"/><path fill="#C56D42" d="M 216.285156 325.164062 C 217.382812 332.464844 215.976562 338.277344 213.136719 338.128906 C 210.292969 337.957031 206.171875 334.011719 203.945312 329.332031 C 201.714844 324.652344 203.066406 318.65625 207.042969 316.183594 C 211.019531 313.726562 215.1875 317.863281 216.285156 325.164062"/><path fill="#F9AE61" d="M 213.257812 324.417969 C 214.199219 330.28125 213.25 334.914062 211.132812 334.746094 C 209.007812 334.558594 205.875 331.332031 204.132812 327.546875 C 202.398438 323.765625 203.304688 318.992188 206.222656 317.074219 C 209.144531 315.179688 212.316406 318.558594 213.257812 324.417969"/><path fill="#FCD978" d="M 211.230469 322.316406 C 211.988281 325.050781 211.203125 327.65625 209.472656 328.136719 C 207.742188 328.617188 205.722656 326.789062 204.964844 324.058594 C 204.207031 321.328125 204.992188 318.722656 206.722656 318.238281 C 208.457031 317.757812 210.46875 319.585938 211.230469 322.316406"/><path fill="#C56D42" d="M 261.878906 312.496094 C 264.699219 319.320312 268.90625 323.574219 271.261719 321.980469 C 273.609375 320.363281 275.105469 314.863281 274.601562 309.699219 C 274.097656 304.542969 269.84375 300.105469 265.164062 300.039062 C 260.492188 299.984375 259.054688 305.679688 261.878906 312.496094"/><path fill="#F9AE61" d="M 264.085938 310.296875 C 266.304688 315.804688 269.507812 319.285156 271.234375 318.050781 C 272.957031 316.796875 273.980469 312.414062 273.515625 308.273438 C 273.050781 304.136719 269.808594 300.515625 266.324219 300.378906 C 262.84375 300.257812 261.867188 304.796875 264.085938 310.296875"/><path fill="#FCD978" d="M 264.738281 307.453125 C 265.5 310.183594 267.511719 312.011719 269.246094 311.53125 C 270.976562 311.046875 271.765625 308.445312 271.003906 305.710938 C 270.246094 302.980469 268.226562 301.152344 266.496094 301.636719 C 264.769531 302.117188 263.980469 304.71875 264.738281 307.453125"/><path fill="#522B25" d="M 188.03125 284.527344 L 178.640625 287.136719 L 178.074219 285.097656 L 187.464844 282.488281 L 188.03125 284.527344"/><path fill="#522B25" d="M 179.03125 285.929688 C 178.574219 284.285156 176.867188 283.316406 175.222656 283.777344 C 173.578125 284.234375 172.613281 285.941406 173.070312 287.585938 C 173.523438 289.230469 175.234375 290.195312 176.878906 289.738281 C 178.527344 289.277344 179.492188 287.574219 179.03125 285.929688"/><path fill="#713A34" d="M 178.121094 286.179688 C 177.800781 285.039062 176.621094 284.371094 175.476562 284.6875 C 174.332031 285.003906 173.664062 286.1875 173.984375 287.332031 C 174.300781 288.472656 175.484375 289.140625 176.625 288.824219 C 177.765625 288.507812 178.4375 287.324219 178.121094 286.179688"/><path fill="#713A34" d="M 186.1875 283.976562 C 186.359375 284.59375 184.882812 285.542969 182.894531 286.09375 C 180.90625 286.648438 179.152344 286.59375 178.980469 285.980469 C 178.8125 285.359375 180.285156 284.410156 182.273438 283.859375 C 184.261719 283.304688 186.011719 283.359375 186.1875 283.976562"/><path fill="#C56E42" d="M 202.058594 279.53125 C 200.777344 274.921875 196 272.222656 191.390625 273.503906 C 186.78125 274.78125 184.078125 279.558594 185.359375 284.171875 C 186.640625 288.785156 191.417969 291.480469 196.027344 290.199219 C 200.640625 288.917969 203.34375 284.144531 202.058594 279.53125"/><path fill="#F9AE61" d="M 191.113281 282.113281 C 191.375 285.46875 190.605469 288.265625 189.398438 288.359375 C 188.1875 288.453125 186.996094 285.808594 186.738281 282.449219 C 186.472656 279.09375 187.242188 276.292969 188.453125 276.199219 C 189.660156 276.105469 190.855469 278.753906 191.113281 282.113281"/><path fill="#522B25" d="M 262.636719 263.800781 L 272.027344 261.191406 L 271.460938 259.152344 L 262.070312 261.765625 L 262.636719 263.800781"/><path fill="#522B25" d="M 271.066406 260.359375 C 270.613281 258.714844 271.574219 257.007812 273.21875 256.550781 C 274.867188 256.09375 276.574219 257.058594 277.03125 258.703125 C 277.488281 260.347656 276.523438 262.054688 274.878906 262.511719 C 273.234375 262.972656 271.527344 262.003906 271.066406 260.359375"/><path fill="#713A34" d="M 271.984375 260.109375 C 271.664062 258.964844 272.332031 257.78125 273.476562 257.464844 C 274.617188 257.148438 275.800781 257.8125 276.117188 258.957031 C 276.4375 260.097656 275.765625 261.285156 274.625 261.601562 C 273.484375 261.914062 272.300781 261.246094 271.984375 260.109375"/><path fill="#713A34" d="M 263.933594 262.378906 C 264.105469 262.996094 265.855469 263.050781 267.847656 262.496094 C 269.832031 261.941406 271.308594 260.996094 271.136719 260.375 C 270.96875 259.757812 269.210938 259.707031 267.226562 260.257812 C 265.234375 260.8125 263.761719 261.761719 263.933594 262.378906"/><path fill="#C56E42" d="M 248.042969 266.757812 C 246.761719 262.144531 249.460938 257.367188 254.070312 256.085938 C 258.683594 254.808594 263.460938 257.507812 264.742188 262.117188 C 266.023438 266.730469 263.324219 271.507812 258.710938 272.785156 C 254.097656 274.066406 249.324219 271.371094 248.042969 266.757812"/><path fill="#F9AE61" d="M 258.75 263.320312 C 260.257812 266.332031 262.359375 268.332031 263.445312 267.789062 C 264.527344 267.246094 264.183594 264.363281 262.675781 261.351562 C 261.167969 258.34375 259.0625 256.339844 257.980469 256.882812 C 256.898438 257.425781 257.242188 260.308594 258.75 263.320312"/><path fill="#522B25" d="M 221.160156 234.457031 C 218.839844 235.101562 216.429688 233.738281 215.78125 231.417969 C 215.136719 229.09375 216.5 226.683594 218.824219 226.039062 C 221.144531 225.394531 223.558594 226.757812 224.199219 229.078125 C 224.847656 231.398438 223.484375 233.8125 221.160156 234.457031 M 203.460938 234.839844 C 202.816406 232.519531 204.179688 230.105469 206.5 229.460938 C 208.820312 228.816406 211.234375 230.179688 211.882812 232.5 C 212.523438 234.820312 211.160156 237.238281 208.839844 237.878906 C 206.519531 238.527344 204.105469 237.164062 203.460938 234.839844 M 217.914062 222.753906 C 215.359375 223.464844 213.460938 225.375 212.648438 227.699219 C 210.753906 226.125 208.140625 225.46875 205.589844 226.175781 C 201.453125 227.324219 199.027344 231.621094 200.175781 235.753906 C 201.320312 239.886719 205.621094 242.3125 209.753906 241.167969 C 209.929688 241.117188 210.097656 241.054688 210.269531 240.996094 L 214.367188 239.855469 L 216.511719 247.585938 L 219.796875 246.671875 L 217.652344 238.945312 L 221.542969 237.863281 C 221.722656 237.828125 221.898438 237.792969 222.074219 237.742188 C 226.207031 236.597656 228.636719 232.296875 227.488281 228.167969 C 226.34375 224.03125 222.042969 221.601562 217.914062 222.753906"/><path fill="#713A34" d="M 208.128906 240.757812 C 207.320312 240.980469 206.535156 241.003906 205.761719 240.832031 C 202.253906 240.050781 200.550781 235.445312 200.480469 235.25 C 200.332031 234.851562 200.539062 234.40625 200.945312 234.257812 C 201.347656 234.117188 201.789062 234.320312 201.929688 234.722656 C 201.960938 234.796875 203.433594 238.730469 206.101562 239.324219 C 207.519531 239.636719 209.097656 238.9375 210.804688 237.238281 C 211.105469 236.9375 211.59375 236.9375 211.894531 237.242188 C 212.195312 237.542969 212.195312 238.035156 211.894531 238.335938 C 210.617188 239.609375 209.355469 240.417969 208.128906 240.757812"/><path fill="#713A34" d="M 219.394531 246.523438 C 219.546875 247.070312 219.226562 247.640625 218.675781 247.792969 C 218.128906 247.945312 217.558594 247.625 217.40625 247.074219 L 215.40625 239.871094 C 215.257812 239.324219 215.574219 238.753906 216.125 238.601562 C 216.671875 238.453125 217.242188 238.769531 217.394531 239.320312 L 219.394531 246.523438"/><path fill="#784639" d="M 263.46875 279.363281 C 266.851562 287.433594 262.015625 296.15625 252.667969 298.820312 C 239.824219 302.386719 226.984375 305.957031 214.140625 309.523438 C 204.753906 312.066406 196.113281 307.085938 194.847656 298.429688 C 193.414062 289.328125 191.980469 280.226562 190.542969 271.125 C 189.28125 262.480469 193.914062 252.46875 201.199219 249.566406 C 211.417969 245.578125 222.015625 242.636719 232.824219 240.78125 C 240.566406 239.507812 249.695312 245.699219 253.078125 253.753906 C 256.542969 262.289062 260.003906 270.828125 263.46875 279.363281"/><path fill="#C56E42" d="M 251.484375 277.175781 C 252.34375 283.757812 248.335938 290.824219 242.648438 292.917969 C 234.644531 295.71875 226.636719 298.519531 218.632812 301.320312 C 212.917969 303.3125 205.792969 299.148438 202.839844 292.015625 C 199.808594 284.523438 196.847656 277.019531 193.984375 269.503906 C 191.207031 262.359375 194.449219 254.21875 201.703125 252.007812 C 211.65625 248.964844 222.269531 246.800781 232.707031 245.5 C 240.335938 244.628906 247.265625 249.769531 248.292969 256.320312 C 249.441406 263.257812 250.496094 270.214844 251.484375 277.175781"/><path fill="#F9AE61" d="M 240.101562 249.519531 C 239.425781 250.476562 234.703125 251.796875 229.703125 252.753906 C 222.6875 254.066406 215.75 255.769531 208.925781 257.863281 C 204.0625 259.355469 199.226562 260.195312 198.140625 259.429688 C 197.066406 258.609375 196.046875 257.777344 195.105469 256.917969 C 194.164062 256.113281 198.21875 253.691406 204.515625 251.886719 C 213.144531 249.402344 222.273438 247.453125 231.164062 246.160156 C 237.644531 245.226562 242.339844 245.601562 241.816406 246.535156 C 241.316406 247.523438 240.738281 248.519531 240.101562 249.519531"/><path fill="#FCD978" d="M 214.554688 252.214844 C 214.925781 253.554688 211.640625 255.632812 207.21875 256.863281 C 202.789062 258.09375 198.902344 258.007812 198.535156 256.667969 C 198.160156 255.328125 201.445312 253.25 205.871094 252.019531 C 210.292969 250.792969 214.183594 250.878906 214.554688 252.214844"/><path fill="#FCD978" d="M 222.800781 250.125 C 223.085938 251.15625 221.898438 252.378906 220.152344 252.867188 C 218.40625 253.355469 216.757812 252.914062 216.46875 251.882812 C 216.183594 250.855469 217.371094 249.628906 219.117188 249.144531 C 220.867188 248.65625 222.519531 249.09375 222.800781 250.125"/><path fill="#EA424B" d="M 232.808594 271.898438 C 231.367188 266.71875 234.402344 261.347656 239.585938 259.90625 C 244.769531 258.46875 250.136719 261.5 251.578125 266.683594 C 253.019531 271.867188 249.984375 277.238281 244.800781 278.675781 C 239.617188 280.117188 234.246094 277.082031 232.808594 271.898438"/><path fill="#784639" d="M 231.226562 272.339844 C 229.546875 266.285156 233.09375 260.011719 239.144531 258.328125 C 245.203125 256.644531 251.472656 260.191406 253.15625 266.25 C 254.839844 272.304688 251.296875 278.578125 245.234375 280.257812 C 239.183594 281.941406 232.90625 278.394531 231.226562 272.339844"/><path fill="#C56E42" d="M 232.808594 271.898438 C 231.367188 266.71875 234.402344 261.347656 239.585938 259.90625 C 244.769531 258.46875 250.136719 261.5 251.578125 266.683594 C 253.019531 271.867188 249.984375 277.238281 244.800781 278.675781 C 239.617188 280.117188 234.246094 277.082031 232.808594 271.898438"/><path fill="#D9C83F" d="M 235.394531 271.296875 C 234.308594 267.378906 236.601562 263.320312 240.515625 262.230469 C 244.433594 261.144531 248.492188 263.4375 249.582031 267.355469 C 250.667969 271.273438 248.375 275.332031 244.460938 276.417969 C 240.542969 277.507812 236.484375 275.210938 235.394531 271.296875"/><path fill="#EADA6D" d="M 237.0625 268.824219 C 236.421875 266.527344 237.773438 264.144531 240.070312 263.503906 C 242.371094 262.867188 244.75 264.214844 245.390625 266.511719 C 246.03125 268.8125 244.683594 271.195312 242.382812 271.835938 C 240.082031 272.472656 237.703125 271.125 237.0625 268.824219"/><path fill="#381D1B" d="M 239.765625 269.851562 C 239.339844 268.320312 240.234375 266.734375 241.765625 266.308594 C 243.296875 265.882812 244.882812 266.78125 245.308594 268.3125 C 245.734375 269.84375 244.839844 271.429688 243.308594 271.855469 C 241.773438 272.28125 240.191406 271.386719 239.765625 269.851562"/><path fill="#FFFDFC" d="M 237.105469 267.074219 C 236.820312 266.042969 237.425781 264.976562 238.453125 264.691406 C 239.484375 264.402344 240.554688 265.003906 240.839844 266.039062 C 241.125 267.070312 240.519531 268.132812 239.488281 268.421875 C 238.460938 268.707031 237.390625 268.105469 237.105469 267.074219"/><path fill="#784639" d="M 196.679688 281.132812 C 195.441406 276.691406 198.042969 272.085938 202.488281 270.851562 C 206.933594 269.617188 211.535156 272.222656 212.773438 276.664062 C 214.007812 281.105469 211.40625 285.710938 206.960938 286.949219 C 202.515625 288.183594 197.914062 285.578125 196.679688 281.132812"/><path fill="#C56E42" d="M 197.835938 280.8125 C 196.777344 277.007812 199.007812 273.066406 202.8125 272.011719 C 206.617188 270.953125 210.558594 273.179688 211.613281 276.984375 C 212.671875 280.789062 210.445312 284.730469 206.640625 285.785156 C 202.835938 286.84375 198.890625 284.617188 197.835938 280.8125"/><path fill="#D9C83F" d="M 199.738281 280.367188 C 198.9375 277.492188 200.621094 274.515625 203.5 273.71875 C 206.375 272.917969 209.351562 274.601562 210.148438 277.476562 C 210.949219 280.355469 209.265625 283.332031 206.390625 284.128906 C 203.511719 284.925781 200.535156 283.246094 199.738281 280.367188"/><path fill="#EADA6D" d="M 200.960938 278.558594 C 200.488281 276.871094 201.476562 275.121094 203.164062 274.652344 C 204.855469 274.183594 206.601562 275.171875 207.074219 276.859375 C 207.539062 278.546875 206.550781 280.296875 204.863281 280.765625 C 203.175781 281.234375 201.429688 280.246094 200.960938 278.558594"/><path fill="#381D1B" d="M 202.941406 279.308594 C 202.632812 278.183594 203.289062 277.019531 204.414062 276.710938 C 205.535156 276.394531 206.699219 277.058594 207.015625 278.179688 C 207.324219 279.304688 206.667969 280.464844 205.542969 280.777344 C 204.417969 281.089844 203.253906 280.433594 202.941406 279.308594"/><path fill="#FFFDFC" d="M 200.992188 277.269531 C 200.78125 276.515625 201.226562 275.730469 201.980469 275.519531 C 202.738281 275.308594 203.523438 275.753906 203.734375 276.507812 C 203.945312 277.265625 203.5 278.050781 202.742188 278.257812 C 201.988281 278.46875 201.203125 278.027344 200.992188 277.269531"/><path fill="#C56E42" d="M 259.023438 287.351562 C 260.691406 288.972656 260.046875 291.613281 257.582031 293.253906 C 255.113281 294.890625 252.402344 295.21875 251.519531 293.992188 C 250.640625 292.761719 251.285156 290.125 252.960938 288.097656 C 254.636719 286.070312 257.351562 285.734375 259.023438 287.351562"/><path fill="#784639" d="M 247.117188 291.066406 C 248.238281 292.816406 247.484375 295.4375 245.308594 296.683594 C 238.183594 300.769531 230.164062 303.019531 221.949219 303.230469 C 219.441406 303.300781 217.441406 301.417969 217.503906 299.292969 C 217.558594 297.164062 219.34375 295.582031 221.464844 295.535156 C 228.609375 295.382812 235.59375 293.464844 241.816406 289.9375 C 243.664062 288.894531 245.996094 289.308594 247.117188 291.066406"/><path fill="#784639" d="M 231.898438 281.070312 C 233.175781 284.691406 231.277344 288.667969 227.65625 289.949219 C 224.023438 291.234375 220.046875 289.332031 218.769531 285.707031 C 217.484375 282.082031 219.382812 278.105469 223.011719 276.824219 C 226.636719 275.546875 230.609375 277.441406 231.898438 281.070312"/><path fill="#FCD978" d="M 229.730469 283.28125 L 230.007812 283.273438 C 230.097656 283.269531 230.167969 283.183594 230.15625 283.078125 C 230.148438 282.964844 230.140625 282.851562 230.128906 282.738281 C 230.109375 282.636719 230.019531 282.5625 229.929688 282.578125 C 229.929688 282.578125 229.808594 282.601562 229.660156 282.628906 C 229.511719 282.65625 229.363281 282.542969 229.324219 282.375 C 229.285156 282.210938 229.351562 282.039062 229.5 281.992188 L 229.765625 281.902344 C 229.847656 281.871094 229.886719 281.769531 229.847656 281.667969 C 229.804688 281.5625 229.765625 281.457031 229.71875 281.355469 C 229.667969 281.261719 229.5625 281.214844 229.484375 281.261719 C 229.484375 281.261719 229.375 281.316406 229.238281 281.386719 C 229.105469 281.453125 228.933594 281.390625 228.84375 281.242188 C 228.753906 281.101562 228.769531 280.917969 228.898438 280.828125 L 229.121094 280.664062 C 229.195312 280.609375 229.203125 280.5 229.136719 280.414062 C 229.0625 280.328125 228.996094 280.234375 228.917969 280.15625 C 228.84375 280.078125 228.730469 280.066406 228.667969 280.132812 C 228.667969 280.132812 228.578125 280.21875 228.472656 280.324219 C 228.363281 280.433594 228.179688 280.417969 228.050781 280.304688 C 227.921875 280.195312 227.886719 280.015625 227.980469 279.890625 L 228.148438 279.671875 C 228.199219 279.597656 228.175781 279.488281 228.089844 279.425781 C 227.996094 279.359375 227.902344 279.296875 227.800781 279.246094 C 227.710938 279.191406 227.597656 279.210938 227.554688 279.292969 C 227.554688 279.292969 227.5 279.402344 227.425781 279.535156 C 227.355469 279.671875 227.171875 279.714844 227.015625 279.644531 C 226.859375 279.574219 226.773438 279.410156 226.824219 279.269531 L 226.917969 279.007812 C 226.949219 278.921875 226.894531 278.824219 226.792969 278.792969 C 226.6875 278.753906 226.578125 278.726562 226.464844 278.699219 C 226.363281 278.675781 226.261719 278.730469 226.246094 278.820312 C 226.246094 278.820312 226.222656 278.941406 226.191406 279.089844 C 226.164062 279.238281 226.003906 279.332031 225.832031 279.3125 C 225.664062 279.292969 225.53125 279.164062 225.542969 279.011719 L 225.550781 278.734375 C 225.558594 278.644531 225.472656 278.570312 225.367188 278.566406 C 225.257812 278.558594 225.144531 278.566406 225.027344 278.578125 C 224.921875 278.585938 224.847656 278.667969 224.855469 278.757812 C 224.855469 278.757812 224.867188 278.878906 224.882812 279.03125 C 224.898438 279.179688 224.773438 279.316406 224.605469 279.347656 C 224.4375 279.378906 224.277344 279.292969 224.238281 279.148438 L 224.167969 278.878906 C 224.144531 278.789062 224.042969 278.742188 223.945312 278.769531 C 223.832031 278.800781 223.722656 278.835938 223.617188 278.882812 C 223.519531 278.917969 223.46875 279.019531 223.503906 279.101562 C 223.503906 279.101562 223.554688 279.214844 223.613281 279.359375 C 223.675781 279.496094 223.59375 279.664062 223.441406 279.742188 C 223.292969 279.820312 223.113281 279.789062 223.03125 279.660156 L 222.886719 279.421875 C 222.839844 279.34375 222.726562 279.328125 222.636719 279.386719 C 222.539062 279.445312 222.453125 279.515625 222.363281 279.585938 C 222.277344 279.652344 222.257812 279.761719 222.316406 279.832031 C 222.316406 279.832031 222.398438 279.925781 222.496094 280.042969 C 222.597656 280.160156 222.570312 280.34375 222.449219 280.464844 C 222.328125 280.582031 222.144531 280.605469 222.027344 280.503906 L 221.820312 280.320312 C 221.753906 280.261719 221.644531 280.277344 221.574219 280.359375 C 221.496094 280.445312 221.4375 280.542969 221.371094 280.632812 C 221.308594 280.71875 221.320312 280.828125 221.398438 280.878906 C 221.398438 280.878906 221.503906 280.945312 221.632812 281.027344 C 221.761719 281.105469 221.789062 281.292969 221.707031 281.445312 C 221.625 281.589844 221.460938 281.667969 221.320312 281.605469 L 221.070312 281.492188 C 220.988281 281.453125 220.882812 281.503906 220.839844 281.601562 C 220.796875 281.707031 220.765625 281.816406 220.726562 281.921875 C 220.695312 282.023438 220.734375 282.125 220.824219 282.152344 C 220.824219 282.152344 220.949219 282.179688 221.09375 282.226562 C 221.242188 282.261719 221.324219 282.429688 221.289062 282.597656 C 221.257812 282.761719 221.121094 282.886719 220.972656 282.871094 L 220.695312 282.835938 C 220.605469 282.824219 220.519531 282.902344 220.507812 283.007812 C 220.5 283.121094 220.5 283.230469 220.5 283.34375 C 220.496094 283.453125 220.566406 283.535156 220.660156 283.53125 C 220.660156 283.53125 220.785156 283.53125 220.933594 283.527344 C 221.089844 283.519531 221.214844 283.65625 221.234375 283.824219 C 221.253906 283.992188 221.152344 284.152344 221.003906 284.175781 L 220.734375 284.226562 C 220.644531 284.242188 220.585938 284.34375 220.605469 284.445312 C 220.625 284.554688 220.667969 284.664062 220.695312 284.769531 C 220.726562 284.875 220.816406 284.933594 220.902344 284.90625 C 220.902344 284.90625 221.023438 284.867188 221.167969 284.816406 C 221.3125 284.765625 221.472656 284.855469 221.539062 285.015625 C 221.605469 285.171875 221.5625 285.347656 221.425781 285.417969 L 221.179688 285.546875 C 221.101562 285.585938 221.074219 285.695312 221.121094 285.792969 C 221.179688 285.890625 221.242188 285.988281 221.304688 286.078125 C 221.363281 286.167969 221.472656 286.199219 221.542969 286.144531 C 221.542969 286.144531 221.644531 286.070312 221.769531 285.980469 C 221.890625 285.890625 222.074219 285.933594 222.183594 286.058594 C 222.296875 286.1875 222.304688 286.375 222.195312 286.480469 L 221.996094 286.671875 C 221.929688 286.742188 221.941406 286.851562 222.015625 286.925781 L 222.269531 287.148438 C 222.351562 287.21875 222.464844 287.207031 222.523438 287.136719 C 222.523438 287.136719 222.597656 287.039062 222.691406 286.914062 C 222.777344 286.792969 222.964844 286.78125 223.105469 286.871094 C 223.253906 286.960938 223.3125 287.136719 223.242188 287.273438 L 223.109375 287.511719 C 223.066406 287.589844 223.105469 287.707031 223.199219 287.746094 L 223.507812 287.886719 C 223.609375 287.933594 223.714844 287.882812 223.746094 287.796875 C 223.746094 287.796875 223.789062 287.683594 223.839844 287.539062 C 223.894531 287.394531 224.0625 287.328125 224.226562 287.371094 C 224.390625 287.417969 224.503906 287.566406 224.472656 287.71875 L 224.421875 287.984375 C 224.398438 288.074219 224.46875 288.167969 224.574219 288.183594 L 224.914062 288.222656 C 225.019531 288.238281 225.109375 288.15625 225.113281 288.074219 C 225.113281 288.074219 225.117188 287.945312 225.125 287.796875 C 225.132812 287.640625 225.207031 287.519531 225.292969 287.519531 C 225.34375 287.523438 225.394531 287.523438 225.445312 287.519531 C 225.5 287.519531 225.550781 287.515625 225.601562 287.515625 C 225.683594 287.511719 225.765625 287.625 225.78125 287.777344 L 225.808594 288.050781 C 225.820312 288.136719 225.910156 288.210938 226.015625 288.191406 L 226.351562 288.132812 C 226.460938 288.113281 226.519531 288.015625 226.5 287.925781 C 226.5 287.925781 226.464844 287.808594 226.429688 287.660156 C 226.390625 287.511719 226.496094 287.359375 226.65625 287.304688 C 226.816406 287.25 226.992188 287.3125 227.054688 287.449219 L 227.160156 287.703125 C 227.191406 287.785156 227.304688 287.828125 227.398438 287.777344 L 227.703125 287.621094 C 227.796875 287.574219 227.828125 287.457031 227.78125 287.382812 C 227.78125 287.382812 227.714844 287.277344 227.636719 287.148438 C 227.554688 287.015625 227.609375 286.839844 227.742188 286.742188 C 227.886719 286.640625 228.070312 286.644531 228.167969 286.761719 L 228.347656 286.976562 C 228.40625 287.042969 228.523438 287.046875 228.597656 286.972656 L 228.839844 286.738281 C 228.914062 286.660156 228.914062 286.542969 228.84375 286.484375 C 228.84375 286.484375 228.75 286.40625 228.636719 286.304688 C 228.523438 286.203125 228.523438 286.019531 228.621094 285.882812 C 228.726562 285.742188 228.90625 285.695312 229.03125 285.777344 L 229.269531 285.929688 C 229.34375 285.980469 229.453125 285.945312 229.503906 285.851562 C 229.558594 285.753906 229.621094 285.660156 229.667969 285.554688 C 229.710938 285.457031 229.679688 285.347656 229.597656 285.3125 C 229.597656 285.3125 229.484375 285.261719 229.34375 285.203125 C 229.203125 285.140625 229.152344 284.964844 229.207031 284.800781 C 229.265625 284.640625 229.421875 284.539062 229.570312 284.582031 L 229.835938 284.660156 C 229.925781 284.683594 230.015625 284.617188 230.042969 284.511719 C 230.066406 284.402344 230.09375 284.292969 230.109375 284.179688 C 230.121094 284.074219 230.0625 283.984375 229.96875 283.96875 C 229.96875 283.96875 229.847656 283.957031 229.699219 283.9375 C 229.546875 283.917969 229.441406 283.769531 229.449219 283.597656 C 229.457031 283.425781 229.574219 283.285156 229.730469 283.28125"/><path fill="#522B25" d="M 227.621094 282.578125 C 228.066406 283.839844 227.40625 285.230469 226.140625 285.671875 C 224.878906 286.121094 223.492188 285.457031 223.046875 284.195312 C 222.597656 282.933594 223.261719 281.542969 224.523438 281.101562 C 225.789062 280.652344 227.171875 281.316406 227.621094 282.578125"/><path fill="#C56E42" d="M 244.679688 289.867188 C 245.738281 291.5 245 293.953125 242.917969 295.132812 C 236.09375 298.992188 228.425781 301.136719 220.582031 301.386719 C 218.191406 301.464844 216.296875 299.71875 216.367188 297.730469 C 216.433594 295.742188 218.144531 294.253906 220.167969 294.199219 C 226.992188 294.015625 233.667969 292.175781 239.625 288.84375 C 241.394531 287.859375 243.617188 288.230469 244.679688 289.867188"/><path fill="#522B25" d="M 241.503906 291.585938 C 242.3125 292.828125 241.75 294.695312 240.167969 295.589844 C 234.976562 298.527344 229.144531 300.160156 223.179688 300.347656 C 221.359375 300.40625 219.917969 299.078125 219.972656 297.570312 C 220.023438 296.054688 221.324219 294.925781 222.863281 294.882812 C 228.050781 294.742188 233.128906 293.34375 237.664062 290.808594 C 239.007812 290.0625 240.699219 290.34375 241.503906 291.585938"/><path fill="#FCD978" d="M 190.765625 280.355469 C 190.902344 281.984375 190.265625 283.371094 189.34375 283.449219 C 188.417969 283.523438 187.5625 282.261719 187.425781 280.632812 C 187.292969 279 187.929688 277.617188 188.851562 277.539062 C 189.773438 277.460938 190.632812 278.722656 190.765625 280.355469"/><path fill="#522B25" d="M 269.085938 347.492188 C 271.9375 357.75 264.953125 368.648438 253.492188 371.828125 C 242.027344 375.015625 230.429688 369.28125 227.574219 359.023438 L 269.085938 347.492188"/><path fill="#63352F" d="M 266.3125 348.261719 L 227.574219 359.023438 C 229.664062 366.535156 236.449219 371.617188 244.433594 372.550781 C 246.425781 372.519531 248.457031 372.242188 250.488281 371.675781 C 261.609375 368.589844 268.511719 358.242188 266.3125 348.261719"/><path fill="#854944" d="M 266.410156 359.675781 C 266.59375 361.019531 261.367188 367.441406 252.90625 369.722656 C 244.480469 372.132812 236.6875 369.320312 236.152344 368.078125 C 235.492188 366.742188 242.714844 367.570312 251.605469 365.046875 C 260.523438 362.621094 266.285156 358.1875 266.410156 359.675781"/><path fill="#995655" d="M 244.644531 365.273438 C 244.984375 366.488281 243.394531 367.988281 241.09375 368.628906 C 238.792969 369.265625 236.65625 368.796875 236.320312 367.582031 C 235.984375 366.367188 237.574219 364.867188 239.871094 364.226562 C 242.171875 363.585938 244.308594 364.054688 244.644531 365.273438"/><path fill="#784639" d="M 272.046875 342.59375 C 272.832031 347.535156 269.972656 352.558594 265.660156 353.804688 C 255.136719 356.726562 244.613281 359.648438 234.09375 362.574219 C 229.757812 363.730469 224.714844 360.902344 222.839844 356.261719 C 218.765625 345.980469 214.691406 335.695312 210.617188 325.410156 C 208.746094 320.785156 211.09375 314.507812 216.140625 311.976562 C 228.28125 305.976562 241.445312 302.316406 254.941406 301.199219 C 260.570312 300.761719 265.820312 304.925781 266.605469 309.859375 C 268.417969 320.769531 270.230469 331.683594 272.046875 342.59375"/><path fill="#C56E42" d="M 267.308594 340.152344 C 267.867188 344.082031 265.246094 348.410156 261.449219 349.808594 C 252.179688 353.15625 242.933594 356.582031 233.707031 360.082031 C 229.925781 361.542969 225.457031 359.222656 223.710938 354.851562 C 219.960938 345.292969 216.179688 335.621094 212.363281 325.828125 C 210.582031 321.339844 213.136719 316.9375 218.074219 316.027344 C 229.914062 313.789062 241.75 311.542969 253.59375 309.304688 C 258.53125 308.394531 262.957031 310.738281 263.484375 314.566406 C 264.734375 322.996094 266.007812 331.519531 267.308594 340.152344"/><path fill="#522B25" d="M 249.144531 304.707031 C 248.394531 305.917969 242.519531 307.46875 236.277344 309.238281 C 230.019531 310.941406 224.1875 312.640625 222.917969 311.992188 C 221.644531 311.375 226.976562 307.902344 235.265625 305.605469 C 243.558594 303.296875 249.914062 303.519531 249.144531 304.707031"/><path fill="#784639" d="M 260.378906 329.90625 C 261.039062 332.277344 259.628906 334.734375 257.238281 335.394531 L 231.390625 342.582031 C 228.996094 343.242188 226.527344 341.863281 225.867188 339.496094 L 222.277344 326.574219 C 221.621094 324.210938 223.027344 321.753906 225.417969 321.089844 L 251.269531 313.90625 C 253.660156 313.242188 256.132812 314.621094 256.792969 316.984375 L 260.378906 329.90625"/><path fill="#C56E42" d="M 257.746094 329.648438 C 258.347656 331.8125 257.082031 334.054688 254.914062 334.65625 L 231.511719 341.160156 C 229.34375 341.761719 227.101562 340.496094 226.5 338.328125 L 223.214844 326.503906 C 222.613281 324.339844 223.882812 322.097656 226.046875 321.492188 L 249.449219 314.992188 C 251.617188 314.390625 253.859375 315.660156 254.460938 317.824219 L 257.746094 329.648438"/><path fill="#97C9C9" d="M 232.5 331.027344 C 232.441406 330.984375 231.363281 330.183594 231.625 328.761719 L 231.664062 328.554688 C 231.964844 326.886719 232.667969 322.976562 238.585938 321.273438 L 238.726562 321.234375 C 244.679688 319.640625 247.292969 322.625 248.410156 323.902344 L 248.550781 324.0625 C 249.515625 325.148438 248.984375 326.421875 248.976562 326.433594 L 247.238281 331.398438 L 241.886719 332.871094 L 236.539062 334.371094 L 232.5 331.027344"/><path fill="#66A2A2" d="M 233.828125 330.546875 C 233.773438 330.507812 232.847656 329.730469 233.03125 328.417969 L 233.054688 328.222656 C 233.261719 326.675781 233.746094 323.046875 238.695312 321.617188 L 238.8125 321.585938 C 243.785156 320.261719 246.074219 323.117188 247.046875 324.335938 L 247.167969 324.488281 C 248.011719 325.523438 247.597656 326.699219 247.59375 326.707031 L 246.261719 331.296875 L 241.789062 332.523438 L 237.320312 333.777344 L 233.828125 330.546875"/><path fill="#468587" d="M 234.730469 329.058594 C 234.691406 329.03125 234.039062 328.800781 234.25 328.011719 C 234.257812 327.96875 234.269531 327.929688 234.277344 327.890625 C 234.574219 327.105469 234.914062 324.242188 239.035156 322.820312 C 239.070312 322.808594 239.105469 322.800781 239.136719 322.792969 C 243.414062 321.929688 245.179688 324.179688 245.828125 324.691406 C 245.859375 324.71875 245.886719 324.746094 245.917969 324.773438 C 246.507812 325.332031 246.042969 325.875 246.042969 325.894531 C 245.53125 326.652344 245.046875 327.519531 244.582031 328.445312 C 243.367188 328.789062 242.15625 329.128906 240.941406 329.472656 C 239.726562 329.816406 238.511719 330.164062 237.296875 330.507812 C 236.429688 329.953125 235.5625 329.453125 234.730469 329.058594"/><path fill="#784639" d="M 237.234375 327.679688 L 240.097656 332.609375 L 242.945312 331.847656 Z M 237.234375 327.679688"/><path fill="#A65F40" d="M 240.46875 331.988281 L 242.421875 331.464844 L 238.503906 328.605469 Z M 240.46875 331.988281"/><path fill="#CDEEEB" d="M 234.605469 325.109375 C 234.605469 325.109375 233.011719 332.378906 238.691406 332.605469 C 238.691406 332.605469 233.527344 330.628906 235.828125 325.171875 C 235.828125 325.171875 235.648438 323.816406 234.605469 325.109375"/><path fill="#FFF" d="M 242.140625 322.617188 C 242.3125 323.234375 241.742188 323.933594 240.867188 324.171875 C 239.992188 324.417969 239.144531 324.113281 238.972656 323.496094 C 238.800781 322.878906 239.371094 322.179688 240.246094 321.9375 C 241.117188 321.695312 241.96875 322 242.140625 322.617188"/><path fill="#CDEEEB" d="M 246.070312 328.128906 C 246.519531 328.585938 246.351562 329.472656 245.703125 330.105469 C 245.054688 330.742188 244.164062 330.882812 243.714844 330.425781 C 243.269531 329.964844 243.433594 329.078125 244.082031 328.445312 C 244.730469 327.8125 245.621094 327.671875 246.070312 328.128906"/><path fill="#F9AE61" d="M 232.894531 337.023438 C 232.894531 337.023438 248.742188 334.828125 250.617188 329.292969 C 250.617188 329.292969 253.410156 324.902344 255.957031 329.011719 C 255.957031 329.011719 249.714844 339.777344 232.894531 337.023438"/><path fill="#F9AE61" d="M 226.40625 333.410156 C 226.40625 333.410156 222.265625 323.320312 227.980469 321.734375 L 251.039062 316.128906 C 251.039062 316.128906 233.761719 323.273438 228.976562 324.367188 C 228.976562 324.367188 226.972656 328.703125 229.609375 331.449219 C 229.609375 331.449219 229.125 334.527344 226.40625 333.410156"/><path fill="#FCD978" d="M 250.796875 333.554688 C 251.039062 334.429688 249.863281 335.523438 248.164062 335.996094 C 246.464844 336.464844 244.890625 336.140625 244.648438 335.261719 C 244.40625 334.386719 245.589844 333.296875 247.285156 332.828125 C 248.980469 332.355469 250.554688 332.679688 250.796875 333.554688"/><path fill="#FCD978" d="M 231.957031 323.539062 C 232.175781 324.308594 231.015625 325.304688 229.367188 325.761719 C 227.722656 326.222656 226.214844 325.96875 226 325.195312 C 225.785156 324.421875 226.945312 323.425781 228.59375 322.96875 C 230.238281 322.511719 231.746094 322.765625 231.957031 323.539062"/><path fill="#F9AE61" d="M 226.113281 314.269531 C 223.414062 314.78125 220.714844 315.292969 218.015625 315.800781 C 212.886719 316.738281 210.242188 321.308594 212.089844 325.972656 C 212.667969 327.457031 213.242188 328.933594 213.820312 330.410156 C 214.566406 326.558594 217.164062 319.546875 226.113281 314.269531"/><path fill="#522B25" d="M 292.480469 270.152344 C 292.480469 270.152344 288.6875 280.796875 282.25 278.417969 C 275.8125 276.039062 276.039062 270.382812 278.515625 263.691406 C 278.515625 263.691406 280.03125 261.527344 281.671875 262.132812 C 283.3125 262.742188 279.824219 266.546875 280.582031 268.1875 C 281.335938 269.832031 283.5 267.695312 284.667969 264.542969 C 285.835938 261.386719 289.273438 263.289062 291.800781 264.222656 C 294.324219 265.152344 293.832031 266.492188 292.480469 270.152344"/><path fill="#713A34" d="M 290.117188 270.769531 C 291.183594 267.878906 291.570312 266.824219 289.578125 266.089844 C 287.585938 265.351562 284.871094 263.851562 283.949219 266.339844 C 283.03125 268.832031 281.320312 270.515625 280.726562 269.21875 C 280.617188 268.984375 280.621094 268.695312 280.683594 268.375 C 280.652344 268.320312 280.613281 268.257812 280.582031 268.1875 C 280.167969 267.296875 281.015625 265.761719 281.605469 264.453125 C 281.597656 264.449219 281.59375 264.441406 281.589844 264.441406 C 280.289062 263.960938 279.09375 265.667969 279.09375 265.667969 C 277.136719 270.949219 276.960938 275.414062 282.042969 277.292969 C 287.121094 279.171875 290.117188 270.769531 290.117188 270.769531"/><path fill="#C56E42" d="M 288.234375 285.28125 C 286.601562 289.703125 281.6875 291.960938 277.265625 290.324219 C 272.839844 288.691406 270.582031 283.78125 272.21875 279.355469 C 273.855469 274.929688 278.765625 272.675781 283.1875 274.308594 C 287.613281 275.945312 289.871094 280.859375 288.234375 285.28125"/><path fill="#F9AE61" d="M 287.097656 284.859375 C 287.078125 287.964844 283.179688 289.039062 278.394531 287.269531 C 273.609375 285.5 271.351562 282.148438 273.355469 279.777344 C 275.359375 277.402344 279.242188 276.367188 282.042969 277.402344 C 284.851562 278.441406 287.117188 281.757812 287.097656 284.859375"/><path fill="#FCD978" d="M 285.726562 284.34375 C 284.648438 285.351562 282.199219 284.484375 280.25 282.40625 C 278.300781 280.324219 277.59375 277.828125 278.667969 276.820312 C 279.742188 275.808594 282.195312 276.675781 284.144531 278.753906 C 286.09375 280.835938 286.800781 283.335938 285.726562 284.34375"/><path fill="#522B25" d="M 161.894531 304.667969 C 161.894531 304.667969 171.292969 310.953125 175.042969 305.203125 C 178.789062 299.453125 175.234375 295.050781 169.257812 291.152344 C 169.257812 291.152344 166.75 290.320312 165.792969 291.785156 C 164.839844 293.25 169.90625 294.226562 170.28125 295.996094 C 170.652344 297.761719 167.640625 297.339844 164.828125 295.503906 C 162.007812 293.667969 160.378906 297.242188 158.90625 299.5 C 157.4375 301.753906 158.628906 302.535156 161.894531 304.667969"/><path fill="#713A34" d="M 164.164062 303.75 C 161.582031 302.070312 160.644531 301.453125 161.804688 299.675781 C 162.964844 297.894531 164.253906 295.070312 166.476562 296.519531 C 168.699219 297.96875 171.074219 298.304688 170.777344 296.910156 C 170.726562 296.65625 170.550781 296.425781 170.308594 296.207031 C 170.304688 296.140625 170.296875 296.070312 170.28125 295.996094 C 170.078125 295.03125 168.484375 294.304688 167.226562 293.605469 C 167.234375 293.601562 167.234375 293.59375 167.238281 293.589844 C 167.996094 292.429688 169.972656 293.089844 169.972656 293.089844 C 174.691406 296.160156 177.492188 299.636719 174.539062 304.175781 C 171.578125 308.714844 164.164062 303.75 164.164062 303.75"/><path fill="#C56E42" d="M 174.324219 314.28125 C 178.273438 316.855469 183.566406 315.742188 186.144531 311.792969 C 188.71875 307.839844 187.601562 302.550781 183.652344 299.976562 C 179.703125 297.398438 174.410156 298.515625 171.835938 302.464844 C 169.257812 306.414062 170.375 311.707031 174.324219 314.28125"/><path fill="#F9AE61" d="M 174.988281 313.265625 C 176.855469 315.742188 180.625 314.285156 183.410156 310.011719 C 186.195312 305.734375 186.007812 301.699219 182.988281 300.992188 C 179.96875 300.28125 176.230469 301.761719 174.597656 304.265625 C 172.964844 306.769531 173.117188 310.785156 174.988281 313.265625"/><path fill="#FCD978" d="M 175.785156 312.035156 C 177.246094 312.203125 178.695312 310.046875 179.019531 307.214844 C 179.347656 304.378906 178.425781 301.953125 176.960938 301.785156 C 175.496094 301.617188 174.046875 303.773438 173.71875 306.605469 C 173.394531 309.433594 174.316406 311.867188 175.785156 312.035156"/></svg>